<svg width="56" height="56" viewBox="0 0 56 56" fill="none" xmlns="http://www.w3.org/2000/svg">
<rect width="56" height="56" rx="12" fill="#343090"/>
<rect x="17.4545" y="15" width="26.5455" height="21.4237" rx="4" stroke="white" stroke-width="4"/>
<rect x="10" y="17.5762" width="30.5455" height="25.4237" rx="6" fill="white"/>
<path d="M25.1007 38.3817C24.8417 38.3817 24.623 38.2753 24.4443 38.0625C24.2657 37.8496 24.1764 37.5836 24.1764 37.2643V36.0831L24.5783 36.5141C23.98 36.4822 23.462 36.3917 23.0244 36.2427C22.5868 36.0937 22.2296 35.9448 21.9527 35.7958C21.7205 35.6681 21.5553 35.4872 21.4571 35.253C21.3678 35.0189 21.3321 34.7795 21.3499 34.5347C21.3767 34.29 21.4526 34.0665 21.5777 33.8643C21.7027 33.6621 21.8634 33.5291 22.0599 33.4652C22.2653 33.3907 22.502 33.4226 22.7699 33.561C22.9485 33.6781 23.2164 33.8004 23.5736 33.9281C23.9398 34.0452 24.3908 34.1037 24.9266 34.1037C25.3017 34.1037 25.5964 34.0612 25.8107 33.976C26.034 33.8909 26.1903 33.7791 26.2796 33.6408C26.3778 33.4918 26.4269 33.3322 26.4269 33.1619C26.4269 33.0023 26.3912 32.8693 26.3197 32.7629C26.2572 32.6458 26.1501 32.5447 25.9983 32.4596C25.8464 32.3638 25.6366 32.2787 25.3686 32.2042L23.8549 31.8211C23.0244 31.5976 22.4037 31.2251 21.9929 30.7037C21.591 30.1716 21.3901 29.4852 21.3901 28.6445C21.3901 28.006 21.5196 27.4366 21.7786 26.9365C22.0465 26.4257 22.4171 26.0106 22.8904 25.6914C23.3727 25.3721 23.9353 25.1699 24.5783 25.0848L24.1764 25.3562V24.2867C24.1764 23.9674 24.2657 23.7014 24.4443 23.4885C24.623 23.2757 24.8417 23.1693 25.1007 23.1693C25.3686 23.1693 25.5919 23.2757 25.7705 23.4885C25.9491 23.7014 26.0384 23.9674 26.0384 24.2867V25.3562L25.6366 25.0529C25.9759 25.0635 26.3421 25.1327 26.735 25.2604C27.128 25.3775 27.4718 25.5424 27.7665 25.7552C27.9719 25.8829 28.1148 26.0585 28.1952 26.282C28.2845 26.5055 28.3157 26.7343 28.2889 26.9684C28.2711 27.1919 28.1996 27.3941 28.0746 27.575C27.9585 27.7559 27.7977 27.8783 27.5923 27.9421C27.3959 27.9953 27.1592 27.9528 26.8824 27.8144C26.677 27.708 26.4448 27.6229 26.1858 27.559C25.9357 27.4845 25.6142 27.4473 25.2213 27.4473C24.748 27.4473 24.3818 27.5484 24.1228 27.7506C23.8728 27.9528 23.7478 28.2135 23.7478 28.5327C23.7478 28.7456 23.8192 28.9265 23.9621 29.0755C24.1139 29.2138 24.3863 29.3362 24.7792 29.4426L26.3064 29.8417C27.1547 30.0652 27.7799 30.4376 28.1818 30.9591C28.5926 31.4699 28.798 32.135 28.798 32.9544C28.798 33.5929 28.6685 34.1569 28.4095 34.6465C28.1505 35.136 27.7888 35.535 27.3244 35.8437C26.869 36.1523 26.3376 36.3545 25.7303 36.4502L26.0384 36.0671V37.2643C26.0384 37.5836 25.9491 37.8496 25.7705 38.0625C25.6008 38.2753 25.3776 38.3817 25.1007 38.3817Z" fill="#3F3F46"/>
</svg>
