<svg width="26" height="26" viewBox="0 0 26 26" fill="none" xmlns="http://www.w3.org/2000/svg">
<path d="M8.99992 13.6668L5.66658 17.0002L8.99992 20.3335L12.3333 17.0002L8.99992 13.6668ZM16.9999 0.333496C12.4298 0.333496 8.68584 3.87088 8.35676 8.357C3.87064 8.6861 0.333252 12.43 0.333252 17.0002C0.333252 21.7867 4.21345 25.6668 8.99992 25.6668C13.5701 25.6668 17.3141 22.1295 17.6431 17.6434C22.1293 17.3143 25.6666 13.5703 25.6666 9.00016C25.6666 4.2137 21.7865 0.333496 16.9999 0.333496ZM17.4311 14.985C16.6766 11.817 14.1831 9.32343 11.0151 8.56903C11.2362 5.45655 13.8311 3.00016 16.9999 3.00016C20.3137 3.00016 22.9999 5.68646 22.9999 9.00016C22.9999 12.169 20.5435 14.7639 17.4311 14.985ZM14.9999 17.0002C14.9999 20.3139 12.3137 23.0002 8.99992 23.0002C5.68621 23.0002 2.99992 20.3139 2.99992 17.0002C2.99992 13.6864 5.68621 11.0002 8.99992 11.0002C12.3137 11.0002 14.9999 13.6864 14.9999 17.0002ZM0.999919 6.3335C0.999919 3.38798 3.38773 1.00016 6.33325 1.00016H8.33325V3.66683H6.33325C4.86049 3.66683 3.66659 4.86074 3.66659 6.3335V8.3335H0.999919V6.3335ZM22.3333 19.6668V17.6668H24.9999V19.6668C24.9999 22.6123 22.6121 25.0002 19.6666 25.0002H17.6666V22.3335H19.6666C21.1394 22.3335 22.3333 21.1396 22.3333 19.6668Z" fill="#343090"/>
</svg>
