<svg width="67" height="66" viewBox="0 0 67 66" fill="none" xmlns="http://www.w3.org/2000/svg">
<path d="M45.0225 5.5H21.9775C11.9675 5.5 6 11.4675 6 21.4775V44.495C6 54.5325 11.9675 60.5 21.9775 60.5H44.995C55.005 60.5 60.9725 54.5325 60.9725 44.5225V21.4775C61 11.4675 55.0325 5.5 45.0225 5.5ZM49.1475 38.6375C49.0375 38.885 48.9 39.105 48.7075 39.2975L40.595 47.41C40.1825 47.8225 39.66 48.015 39.1375 48.015C38.615 48.015 38.0925 47.8225 37.68 47.41C36.8825 46.6125 36.8825 45.2925 37.68 44.495L42.2725 39.9025H19.75C18.6225 39.9025 17.6875 38.9675 17.6875 37.84C17.6875 36.7125 18.6225 35.7775 19.75 35.7775H47.25C47.525 35.7775 47.7725 35.8325 48.0475 35.9425C48.5425 36.1625 48.955 36.5475 49.175 37.07C49.3675 37.565 49.3675 38.115 49.1475 38.6375ZM47.25 30.2225H19.75C19.475 30.2225 19.2275 30.1675 18.9525 30.0575C18.4575 29.8375 18.045 29.4525 17.825 28.93C17.605 28.435 17.605 27.8575 17.825 27.3625C17.9625 27.115 18.1 26.895 18.2925 26.7025L26.405 18.59C27.2025 17.7925 28.5225 17.7925 29.32 18.59C30.1175 19.3875 30.1175 20.7075 29.32 21.505L24.7275 26.0975H47.25C48.3775 26.0975 49.3125 27.0325 49.3125 28.16C49.3125 29.2875 48.3775 30.2225 47.25 30.2225Z" fill="#343090"/>
</svg>
