<svg width="56" height="56" viewBox="0 0 56 56" fill="none" xmlns="http://www.w3.org/2000/svg">
<rect width="56" height="56" rx="12" fill="#343090"/>
<path d="M22.8462 16.5C22.8462 15.8324 23.3186 15.5 23.6538 15.5H41.1923C41.5276 15.5 42 15.8324 42 16.5C42 17.1676 41.5276 17.5 41.1923 17.5H23.6538C23.3186 17.5 22.8462 17.1676 22.8462 16.5ZM22.8462 28C22.8462 27.3324 23.3186 27 23.6538 27H41.1923C41.5276 27 42 27.3324 42 28C42 28.6676 41.5276 29 41.1923 29H23.6538C23.3186 29 22.8462 28.6676 22.8462 28ZM22.8462 39.5C22.8462 38.8324 23.3186 38.5 23.6538 38.5H41.1923C41.5276 38.5 42 38.8324 42 39.5C42 40.1676 41.5276 40.5 41.1923 40.5H23.6538C23.3186 40.5 22.8462 40.1676 22.8462 39.5ZM15 16C15 15.0563 15.679 14.5 16.2692 14.5H17.1923C17.7825 14.5 18.4615 15.0563 18.4615 16V17C18.4615 17.9437 17.7825 18.5 17.1923 18.5H16.2692C15.679 18.5 15 17.9437 15 17V16ZM15 27.5C15 26.5563 15.679 26 16.2692 26H17.1923C17.7825 26 18.4615 26.5563 18.4615 27.5V28.5C18.4615 29.4437 17.7825 30 17.1923 30H16.2692C15.679 30 15 29.4437 15 28.5V27.5ZM15 39C15 38.0563 15.679 37.5 16.2692 37.5H17.1923C17.7825 37.5 18.4615 38.0563 18.4615 39V40C18.4615 40.9437 17.7825 41.5 17.1923 41.5H16.2692C15.679 41.5 15 40.9437 15 40V39Z" fill="white" stroke="white" stroke-width="3"/>
</svg>
