<svg width="16" height="16" viewBox="0 0 16 16" stroke="#42D73F"
  xmlns="http://www.w3.org/2000/svg">
  <path
    d="M12.5873 15.5024C10.9764 15.5024 9.67059 14.1966 9.67059 12.5857C9.67059 10.9749 10.9764 9.66908 12.5873 9.66908C14.1981 9.66908 15.5039 10.9749 15.5039 12.5857C15.5039 14.1966 14.1981 15.5024 12.5873 15.5024ZM12.5873 13.8357C13.2776 13.8357 13.8373 13.2762 13.8373 12.5857C13.8373 11.8954 13.2776 11.3357 12.5873 11.3357C11.8969 11.3357 11.3373 11.8954 11.3373 12.5857C11.3373 13.2762 11.8969 13.8357 12.5873 13.8357ZM3.42057 6.33575C1.80975 6.33575 0.503906 5.02994 0.503906 3.41911C0.503906 1.80828 1.80975 0.502441 3.42057 0.502441C5.03141 0.502441 6.33726 1.80828 6.33726 3.41911C6.33726 5.02994 5.03141 6.33575 3.42057 6.33575ZM3.42057 4.66911C4.11093 4.66911 4.67057 4.10947 4.67057 3.41911C4.67057 2.72875 4.11093 2.16911 3.42057 2.16911C2.73022 2.16911 2.17057 2.72875 2.17057 3.41911C2.17057 4.10947 2.73022 4.66911 3.42057 4.66911ZM13.8965 0.931375L15.075 2.10988L2.11136 15.0735L0.93284 13.895L13.8965 0.931375Z"
    fill="#42D73F" />
</svg>