<svg width="118" height="64" viewBox="0 0 118 64" fill="currentColor" xmlns="http://www.w3.org/2000/svg">
<path fill-rule="evenodd" clip-rule="evenodd" d="M4.42428 0.565765C4.42428 0.594915 4.29306 0.628924 4.03547 0.662932C3.6418 0.716374 3.00268 0.944716 2.55555 1.19249C1.84596 1.58116 1.26517 2.12286 0.788873 2.83704C0.565305 3.17227 0.295565 3.7577 0.208082 4.09778C0.186211 4.17794 0.15948 4.25568 0.147329 4.27025C0.135179 4.28483 0.113308 4.38928 0.101158 4.50345C0.0865772 4.6152 0.0598462 4.78281 0.0404055 4.87755C-0.0130564 5.1156 -0.0130564 5.99011 0.0379754 6.18444C0.0574161 6.26217 0.0865772 6.42493 0.0987276 6.54639C0.113308 6.66785 0.135179 6.78202 0.147329 6.79659C0.15948 6.81117 0.186211 6.8889 0.208082 6.96906C0.256683 7.16097 0.453521 7.65409 0.541004 7.8047C0.553154 7.82413 0.577455 7.87757 0.599326 7.9213C0.618767 7.96502 0.669798 8.0549 0.71354 8.11806C0.757282 8.18122 0.803453 8.24924 0.815604 8.2711C0.98814 8.54074 1.25545 8.85896 1.52276 9.11402C1.66613 9.25006 1.81194 9.38123 1.84596 9.40309C1.87998 9.42253 1.92129 9.45168 1.93344 9.46625C1.95775 9.49297 2.17888 9.64844 2.30525 9.7286C2.45834 9.8282 2.99539 10.1003 3.08774 10.127C3.12176 10.1367 3.18737 10.1634 3.23354 10.1877C3.27971 10.2144 3.34533 10.2339 3.37935 10.2339C3.41337 10.2339 3.48627 10.2557 3.54216 10.2825C3.59805 10.3067 3.69769 10.3359 3.76087 10.3432C3.82405 10.3529 3.94799 10.3772 4.03547 10.3966C4.60411 10.5254 5.23107 10.5302 5.77298 10.4136C5.86776 10.3942 6.01113 10.3675 6.09376 10.3553C6.17638 10.3408 6.30031 10.3092 6.36836 10.2825C6.4364 10.2557 6.51659 10.2339 6.54575 10.2339C6.57491 10.2339 6.65025 10.2071 6.71343 10.1731C6.77661 10.1391 6.84222 10.1124 6.85923 10.1124C6.87624 10.1124 6.99532 10.0565 7.12168 9.99095C7.24805 9.92537 7.37684 9.85978 7.40843 9.8452C7.43759 9.83306 7.49349 9.80148 7.52994 9.77719C7.56639 9.75289 7.64415 9.69945 7.7049 9.66059C8.06213 9.43224 8.55544 8.98042 8.82761 8.6379C8.97098 8.45572 9.25044 8.04519 9.28689 7.96502C9.29904 7.93587 9.31848 7.89701 9.33063 7.87757C9.36708 7.81927 9.54448 7.43546 9.56392 7.36745C9.57364 7.33344 9.6028 7.26785 9.6271 7.2217C9.65384 7.17554 9.67328 7.11238 9.67328 7.0808C9.67328 7.04923 9.69515 6.97392 9.72188 6.91076C9.74618 6.8476 9.7802 6.70914 9.79478 6.60469C9.81179 6.4978 9.83366 6.38363 9.84824 6.34962C9.92114 6.15529 9.91871 4.9067 9.84338 4.7075C9.8288 4.66864 9.80693 4.55204 9.79235 4.44758C9.7802 4.34556 9.74861 4.21438 9.72188 4.15608C9.69515 4.09778 9.67328 4.02491 9.67328 3.9909C9.67328 3.95689 9.65627 3.89859 9.63439 3.85729C9.61495 3.81843 9.56878 3.71397 9.53476 3.62652C9.30147 3.04109 8.90051 2.45323 8.41206 1.97954C8.11073 1.69047 8.03783 1.62974 7.74136 1.42812C7.51293 1.27022 6.92485 0.954433 6.86409 0.954433C6.84708 0.954433 6.7839 0.93257 6.72801 0.908278C6.53117 0.820828 6.06459 0.689653 5.85804 0.662932C5.62475 0.633782 5.49352 0.597344 5.49352 0.563336C5.49352 0.55119 5.26996 0.541473 4.9589 0.541473C4.63327 0.541473 4.42428 0.55119 4.42428 0.565765Z" fill="#4FFF4B"/>
<path fill-rule="evenodd" clip-rule="evenodd" d="M13.5296 0.573112C13.5223 0.592546 13.4688 0.628981 13.4105 0.658131C13.2768 0.721289 13.1894 0.813599 13.1189 0.966637L13.063 1.0881L13.0703 5.1934C13.0776 9.23797 13.0776 9.30113 13.1262 9.4323C13.1869 9.59506 13.2452 9.6655 13.4032 9.76024L13.5247 9.83311L18.8223 9.84526C23.6412 9.85741 24.1418 9.86227 24.3629 9.8987C24.4966 9.92057 24.7371 9.957 24.8975 9.9813C25.0579 10.0032 25.2547 10.042 25.3349 10.0639C25.4151 10.0882 25.5391 10.1149 25.6095 10.1222C25.6824 10.1319 25.7942 10.1611 25.8598 10.1853C25.9254 10.2121 26.0105 10.2339 26.047 10.2339C26.0834 10.2364 26.1563 10.2534 26.2098 10.2728C26.2632 10.2947 26.3629 10.3262 26.4285 10.3432C26.5719 10.3797 26.9218 10.5084 27.0603 10.5764C27.1138 10.6007 27.1745 10.6226 27.1964 10.6226C27.2183 10.6226 27.2863 10.6493 27.3495 10.6833C27.4127 10.7173 27.4758 10.7441 27.488 10.7441C27.5099 10.7441 27.8841 10.9238 27.9959 10.987C28.0153 10.9991 28.0712 11.0258 28.1174 11.0501C28.3239 11.1497 28.6714 11.3416 28.7249 11.3854C28.7443 11.4024 28.827 11.4534 28.9072 11.4971C28.9874 11.5433 29.0578 11.5845 29.0651 11.5918C29.0724 11.5991 29.1332 11.6428 29.1988 11.689C29.4831 11.8833 29.6386 11.9951 29.6605 12.0194C29.6751 12.0339 29.714 12.0655 29.748 12.0874C29.782 12.1068 29.8598 12.1675 29.9205 12.2186C29.9813 12.2696 30.0687 12.3424 30.1198 12.3837C30.5669 12.7457 31.2862 13.4963 31.6605 13.9943C31.6823 14.0234 31.7139 14.0623 31.7261 14.0793C31.8379 14.2178 31.9812 14.4121 31.9812 14.4243C31.9812 14.4413 32.127 14.655 32.1538 14.6793C32.2291 14.7473 32.9047 15.9741 32.9047 16.0445C32.9047 16.0591 32.9314 16.1271 32.963 16.1951C33.1452 16.5838 33.2327 16.8121 33.3056 17.072C33.3251 17.1376 33.3615 17.2542 33.3882 17.3271C33.415 17.4 33.4368 17.485 33.4393 17.5117C33.4393 17.5409 33.4539 17.6016 33.4733 17.6453C33.5413 17.8081 33.6993 18.5538 33.7163 18.7846C33.7236 18.8842 33.7479 19.0494 33.7722 19.149C33.833 19.4186 33.833 21.1846 33.7722 21.4518C33.7503 21.5514 33.7187 21.7555 33.7066 21.9061C33.6944 22.0591 33.6726 22.2073 33.6604 22.2413C33.6483 22.2729 33.6094 22.4308 33.5754 22.5936C33.5413 22.7539 33.5 22.9239 33.4806 22.9676C33.4612 23.0114 33.4393 23.1037 33.4296 23.1693C33.4174 23.2349 33.3907 23.3272 33.3664 23.3757C33.3421 23.4219 33.3153 23.5094 33.3056 23.5701C33.2959 23.6308 33.2765 23.6915 33.2643 23.7085C33.2522 23.7231 33.2206 23.8009 33.1963 23.8786C33.1379 24.0656 32.9897 24.4179 32.9557 24.4519C32.9411 24.4664 32.929 24.4956 32.929 24.515C32.929 24.566 32.6179 25.2122 32.5547 25.2948C32.5377 25.3142 32.5134 25.358 32.4964 25.392C32.4041 25.5863 32.0493 26.1547 31.9521 26.2665C31.9351 26.2859 31.9083 26.3248 31.8913 26.3563C31.8767 26.3855 31.8524 26.4244 31.8379 26.4414C31.8233 26.4584 31.7236 26.5823 31.6191 26.7159C31.5147 26.8495 31.3956 26.9928 31.3591 27.0365C31.3202 27.0802 31.2449 27.1677 31.1915 27.2308C31.0092 27.447 30.5693 27.8892 30.3482 28.0786C30.2243 28.1855 30.1028 28.2924 30.076 28.3191C30.0469 28.3483 29.9764 28.4066 29.9157 28.4527C29.8549 28.4989 29.7941 28.5475 29.7796 28.562C29.7115 28.6252 29.1648 29.0066 28.9558 29.1377C28.8902 29.179 28.7954 29.2398 28.7468 29.2713C28.7006 29.3005 28.6544 29.3272 28.6447 29.3272C28.6374 29.3272 28.5815 29.3612 28.5208 29.4001C28.4625 29.4414 28.3774 29.49 28.3312 29.5118C28.2024 29.5726 28.1077 29.6187 28.0688 29.6454C28.0493 29.6576 28.0056 29.6795 27.9716 29.694C27.9376 29.711 27.7966 29.7766 27.6557 29.8446C27.5147 29.9102 27.347 29.9807 27.279 30.0001C27.2134 30.0195 27.1356 30.0511 27.1089 30.0705C27.0822 30.09 27.0384 30.1046 27.0117 30.1046C26.985 30.1046 26.9096 30.1313 26.8416 30.1653C26.776 30.1969 26.6982 30.226 26.6739 30.226C26.6472 30.226 26.5597 30.2527 26.4746 30.2867C26.392 30.3208 26.2486 30.3645 26.1587 30.3839C26.0664 30.4058 25.9522 30.4374 25.9036 30.4568C25.855 30.4738 25.7456 30.4981 25.6606 30.5078C25.5755 30.5151 25.4662 30.5394 25.42 30.5588C25.3738 30.5782 25.2159 30.6025 25.0676 30.6171C24.9218 30.6293 24.7566 30.6511 24.7031 30.6681C24.4431 30.7386 24.1685 30.7434 18.9317 30.758L13.549 30.7726L13.4154 30.8503C13.238 30.9523 13.1894 31.0106 13.1262 31.1928L13.0751 31.3434V35.388V39.4326L13.1286 39.5832C13.1869 39.7581 13.2598 39.8407 13.4299 39.9257L13.549 39.9864L18.6522 39.9986C23.4759 40.0107 24.5063 40.001 24.8684 39.9427C24.951 39.9306 25.211 39.9087 25.4443 39.8941C25.6776 39.882 25.9303 39.8528 26.0032 39.8334C26.0761 39.814 26.2414 39.7921 26.3677 39.7824C26.4941 39.7751 26.6763 39.7484 26.7687 39.7241C26.8635 39.6974 27.0214 39.6658 27.1211 39.6536C27.2207 39.6391 27.4029 39.6026 27.522 39.5686C27.6435 39.537 27.8015 39.503 27.8744 39.4933C27.9473 39.4836 28.0469 39.4593 28.0931 39.4399C28.1393 39.4204 28.2462 39.3937 28.3312 39.3816C28.4163 39.3694 28.5184 39.3427 28.5572 39.3208C28.5985 39.3014 28.686 39.2771 28.7565 39.2698C28.827 39.2625 28.912 39.2407 28.9509 39.2212C29.0335 39.1799 29.3081 39.0925 29.3567 39.0925C29.3786 39.0925 29.4369 39.0706 29.4855 39.0463C29.5366 39.0196 29.624 38.9905 29.6799 38.9808C29.7358 38.9735 29.8209 38.9443 29.8671 38.92C29.9132 38.8933 29.9715 38.8739 29.9983 38.8739C30.0226 38.8739 30.1052 38.8471 30.1805 38.8156C30.4697 38.6941 30.686 38.6067 30.7905 38.5678C30.8512 38.5459 30.9509 38.5095 31.0116 38.4876C31.0748 38.4658 31.1526 38.4269 31.1866 38.405C31.223 38.3832 31.2619 38.3637 31.2765 38.3637C31.2911 38.3637 31.398 38.3176 31.5147 38.2641C31.6313 38.2083 31.7868 38.1354 31.8597 38.1038C31.9326 38.0698 32.0104 38.0334 32.0298 38.0212C32.0493 38.0091 32.093 37.9872 32.127 37.9751C32.1902 37.9484 32.37 37.856 32.5158 37.7735C32.562 37.7467 32.6349 37.7079 32.6738 37.6909C32.7151 37.6714 32.7637 37.6447 32.7832 37.6326C32.8026 37.6204 32.8633 37.5888 32.9168 37.5597C33.0626 37.4844 33.4417 37.2633 33.6823 37.1127C33.7285 37.0836 33.8111 37.0326 33.8645 36.9985C34.1319 36.8334 34.4356 36.6342 34.6179 36.5079C34.6859 36.4593 34.7588 36.4083 34.7855 36.3913C34.8099 36.3743 34.8998 36.3087 34.9872 36.2431C35.0723 36.1799 35.1525 36.1289 35.1646 36.1289C35.1792 36.1289 35.1889 36.1192 35.1889 36.1095C35.1889 36.0973 35.24 36.0512 35.3056 36.005C35.4441 35.9054 36.1391 35.3491 36.2582 35.2398C36.3044 35.1985 36.4647 35.0552 36.6105 34.924C37.0723 34.5086 37.8207 33.7459 38.3456 33.1532C38.5716 32.8981 39.2253 32.0625 39.4416 31.754C39.7162 31.3604 40.1463 30.7167 40.1463 30.6997C40.1463 30.6924 40.1949 30.6123 40.2557 30.5175C40.3164 30.4228 40.365 30.3378 40.365 30.3256C40.365 30.3159 40.3845 30.2795 40.4112 30.2479C40.4355 30.2163 40.4865 30.1313 40.5254 30.0608C40.5643 29.9904 40.6251 29.8811 40.6591 29.8179C40.7854 29.5969 41.167 28.8462 41.2399 28.6835C41.3055 28.5353 41.3954 28.3385 41.4926 28.1321C41.5412 28.0276 41.5801 27.9304 41.5801 27.9134C41.5801 27.894 41.5947 27.8576 41.6141 27.8309C41.6335 27.8041 41.67 27.7215 41.6967 27.6487C41.8474 27.2357 41.8814 27.1434 41.9227 27.0511C41.947 26.9952 41.9689 26.9345 41.9689 26.9175C41.9689 26.898 41.9908 26.8422 42.0151 26.7912C42.0418 26.7402 42.0734 26.6478 42.088 26.5847C42.1001 26.524 42.1293 26.4389 42.1487 26.4001C42.1706 26.3588 42.1876 26.3078 42.1876 26.2859C42.1876 26.264 42.2216 26.1377 42.2629 26.0065C42.4014 25.5644 42.4744 25.3069 42.4987 25.1855C42.5132 25.1175 42.5424 24.9984 42.5618 24.9183C42.6445 24.5928 42.7222 24.2357 42.7222 24.1847C42.7222 24.1555 42.7538 23.9879 42.7927 23.8081C42.8316 23.6308 42.8705 23.3976 42.8802 23.2907C42.8899 23.1838 42.9166 23.0017 42.9434 22.8851C42.9677 22.7685 42.9895 22.5984 42.992 22.5085C42.992 22.2268 43.0527 21.6899 43.0843 21.6802C43.1183 21.668 43.1232 18.9304 43.0892 18.9304C43.0527 18.9304 43.0406 18.8332 43.0017 18.2988C42.9822 18.0243 42.9506 17.7376 42.9312 17.6599C42.9118 17.5846 42.8899 17.4267 42.8802 17.3077C42.8705 17.1911 42.8437 17.0137 42.817 16.9117C42.7927 16.8097 42.7514 16.6008 42.7246 16.4502C42.6979 16.2971 42.6663 16.1417 42.6517 16.1028C42.6347 16.0639 42.6129 15.9498 42.5983 15.8477C42.5837 15.7481 42.557 15.6364 42.5375 15.6C42.5205 15.5635 42.4986 15.4882 42.4914 15.4299C42.4841 15.3716 42.4501 15.2356 42.4185 15.1287C42.3844 15.0218 42.3188 14.8032 42.2727 14.6429C42.2241 14.4826 42.1755 14.3222 42.1633 14.2834C42.1487 14.2469 42.1293 14.1886 42.1147 14.1498C42.1025 14.1133 42.0758 14.0356 42.0588 13.9749C42.0126 13.8315 41.9786 13.7392 41.8814 13.489C41.8377 13.3748 41.7939 13.2558 41.7842 13.2218C41.7745 13.1878 41.7478 13.1222 41.7235 13.0761C41.6967 13.0299 41.6773 12.9789 41.6773 12.9619C41.6773 12.9449 41.6554 12.8842 41.6287 12.8283C41.6044 12.77 41.5047 12.5489 41.4075 12.3352C41.3128 12.1238 41.2253 11.9319 41.2156 11.9101C41.2034 11.8906 41.1159 11.7157 41.0187 11.5214C40.9215 11.3271 40.8122 11.1133 40.7733 11.0477C40.7368 10.9797 40.6907 10.8898 40.6688 10.8461C40.6469 10.7999 40.574 10.676 40.5084 10.5692C40.4404 10.4623 40.3796 10.3578 40.3699 10.3335C40.3626 10.3117 40.3383 10.2679 40.3164 10.2339C40.2946 10.1999 40.2484 10.1295 40.2144 10.076C40.1803 10.0226 40.1147 9.91814 40.0686 9.84526C40.0224 9.77239 39.9276 9.62421 39.8596 9.51732C39.7915 9.41044 39.7259 9.31084 39.7162 9.2987C39.636 9.20153 39.4416 8.91975 39.4416 8.90274C39.4416 8.89303 39.4222 8.8663 39.4003 8.84444C39.376 8.82258 39.3298 8.76428 39.2958 8.7157C39.1573 8.51165 38.4526 7.64443 38.1512 7.30678C37.9738 7.10516 37.619 6.73349 37.3639 6.47843C36.9532 6.06547 36.8147 5.93429 36.3797 5.55048C36.3189 5.49947 36.1999 5.39259 36.1148 5.31728C35.6993 4.95048 34.2242 3.86221 34.0468 3.79419C34.0274 3.78448 33.9933 3.76019 33.9763 3.73832C33.9593 3.71646 33.935 3.69946 33.9253 3.69946C33.9131 3.69946 33.7601 3.60958 33.5802 3.49783C33.4028 3.38852 33.2303 3.28407 33.1963 3.26706C33.1282 3.23063 33.0602 3.19176 32.8439 3.0703C32.5985 2.92941 31.5244 2.39499 31.4539 2.37556C31.415 2.36827 31.3688 2.34641 31.3494 2.32697C31.33 2.30997 31.2692 2.28325 31.2157 2.26624C31.1623 2.24924 31.1064 2.22737 31.0918 2.21523C31.0772 2.20308 30.9898 2.16665 30.8974 2.13264C30.8051 2.0962 30.7079 2.0549 30.6811 2.0379C30.6544 2.02089 30.6009 1.99904 30.5596 1.98932C30.5207 1.9796 30.443 1.95045 30.3895 1.92616C30.3361 1.90187 30.2437 1.86543 30.183 1.846C30.1222 1.82656 29.9643 1.76826 29.8306 1.71968C29.6969 1.6711 29.522 1.61037 29.4418 1.58607C29.3616 1.56178 29.2474 1.52535 29.1866 1.50348C28.9217 1.41603 28.6739 1.34316 28.6301 1.34316C28.6058 1.34316 28.5475 1.32858 28.5038 1.30915C28.4576 1.28972 28.3021 1.24599 28.1538 1.20956C28.008 1.17555 27.8428 1.13182 27.7893 1.11238C27.7359 1.09295 27.6265 1.07109 27.5463 1.0638C27.4661 1.05409 27.3641 1.03222 27.3203 1.01279C27.2741 0.995786 27.1429 0.969066 27.0287 0.954491C26.9121 0.939916 26.7638 0.913194 26.6958 0.893761C26.6302 0.874327 26.4746 0.847606 26.3507 0.833031C26.2292 0.820885 25.9716 0.782018 25.7796 0.750439C25.5877 0.718859 25.3009 0.684853 25.1405 0.675137C24.6934 0.650845 24.2195 0.594973 24.2098 0.565823C24.2025 0.548818 22.5428 0.541531 18.8709 0.541531C14.4238 0.541531 13.5393 0.546392 13.5296 0.573112Z" fill="#4FFF4B"/>
<path fill-rule="evenodd" clip-rule="evenodd" d="M4.4608 30.1268C4.36845 30.139 4.26153 30.1584 4.22508 30.173C4.19106 30.1875 4.09142 30.2045 4.00637 30.2143C3.84112 30.2288 3.37212 30.3673 3.17042 30.4596C3.10238 30.4912 3.02461 30.5179 2.99788 30.5179C2.97115 30.5179 2.92255 30.5373 2.89096 30.5641C2.85937 30.5884 2.79619 30.6175 2.75487 30.6248C2.71113 30.6345 2.66982 30.6515 2.66253 30.6637C2.65524 30.6758 2.57748 30.7268 2.49 30.7778C2.26886 30.9066 2.25914 30.9114 2.17165 30.9722C2.13034 31.0037 2.08417 31.028 2.06959 31.028C2.05744 31.028 2.03557 31.0426 2.02585 31.0596C2.01613 31.0742 1.94566 31.1349 1.87275 31.1908C1.7634 31.2734 1.53497 31.4726 1.45478 31.5552C1.36486 31.6475 1.22635 31.8054 1.12429 31.9317C1.05624 32.0167 0.98577 32.1017 0.96633 32.1236C0.949319 32.143 0.925018 32.177 0.915298 32.1965C0.908007 32.2159 0.844825 32.3131 0.779213 32.4127C0.71117 32.5123 0.640698 32.6289 0.621257 32.6726C0.601816 32.7139 0.575085 32.7552 0.560505 32.7649C0.548354 32.7722 0.524053 32.8256 0.509473 32.8815C0.494892 32.9374 0.470591 32.9981 0.456011 33.0151C0.42928 33.0491 0.385538 33.1584 0.281045 33.4694C0.244593 33.5762 0.193561 33.7171 0.169261 33.7851C0.14496 33.8507 0.118229 33.9819 0.110938 34.0766C0.101218 34.169 0.0769171 34.3171 0.0550463 34.4046C0.00158439 34.6062 -0.00570587 35.5317 0.045326 35.6678C0.0623366 35.7115 0.0866375 35.8548 0.101218 35.9835C0.113368 36.1099 0.14496 36.2678 0.169261 36.3358C0.193561 36.4014 0.242163 36.5447 0.278614 36.6516C0.368528 36.9188 0.409839 37.0232 0.463301 37.1374C0.487602 37.1908 0.519193 37.2613 0.533774 37.2953C0.548354 37.3293 0.584806 37.3973 0.616397 37.4459C0.645558 37.4945 0.70631 37.5989 0.752482 37.6767C0.849685 37.8419 0.878846 37.8832 1.11456 38.1844C1.26766 38.3811 1.59329 38.7042 1.8363 38.901C2.06473 39.0856 2.44868 39.348 2.53131 39.3722C2.5629 39.382 2.61636 39.4111 2.64795 39.4354C2.67954 39.4621 2.71599 39.4816 2.72814 39.4816C2.74029 39.4816 2.83993 39.5253 2.94685 39.5787C3.05621 39.6322 3.15827 39.6759 3.17528 39.6759C3.19229 39.6759 3.24332 39.6953 3.28706 39.722C3.33081 39.7463 3.41829 39.7731 3.4839 39.7828C3.54708 39.7901 3.62242 39.8119 3.65401 39.8314C3.68317 39.8532 3.80953 39.8799 3.93104 39.8945C4.05497 39.9067 4.1862 39.931 4.22265 39.948C4.26639 39.965 4.50211 39.9795 4.86176 39.9868C5.33077 39.9941 5.46442 39.9893 5.61509 39.9552C5.71472 39.9334 5.88726 39.9042 5.99904 39.8921C6.1084 39.8799 6.22261 39.8556 6.2542 39.8362C6.28336 39.8168 6.37085 39.7901 6.45104 39.7755C6.5288 39.7609 6.60657 39.739 6.62115 39.7269C6.63573 39.7148 6.72321 39.6759 6.81555 39.6419C6.9079 39.6054 7.01968 39.5569 7.06099 39.5301C7.10473 39.5034 7.15577 39.4816 7.17521 39.4816C7.19708 39.4816 7.23839 39.4597 7.27241 39.4354C7.304 39.4087 7.36232 39.3795 7.39634 39.3722C7.4328 39.3625 7.46196 39.3455 7.46196 39.3309C7.46196 39.3188 7.49841 39.2945 7.54215 39.2751C7.58346 39.2556 7.68066 39.1949 7.75357 39.1415C7.82647 39.088 7.9261 39.0176 7.97227 38.986C8.22986 38.8111 8.71588 38.318 8.91272 38.0362C8.95889 37.9682 9.02936 37.871 9.06824 37.8176C9.10713 37.7641 9.15573 37.684 9.1776 37.6402C9.19947 37.5989 9.2262 37.5625 9.23592 37.5625C9.24564 37.5625 9.26265 37.5334 9.27237 37.4969C9.27966 37.4629 9.30882 37.4046 9.33555 37.373C9.35986 37.339 9.38173 37.2953 9.38173 37.2734C9.38173 37.2516 9.39631 37.2127 9.41575 37.186C9.43276 37.1593 9.48379 37.05 9.5251 36.9431C9.56884 36.8386 9.61258 36.739 9.6223 36.7244C9.63446 36.7123 9.65633 36.6419 9.67091 36.5714C9.68549 36.501 9.71222 36.4135 9.73166 36.3771C9.74867 36.3406 9.77297 36.241 9.78026 36.1536C9.78998 36.0661 9.81671 35.935 9.83858 35.8621C9.89934 35.6653 9.89934 34.4507 9.83858 34.271C9.81671 34.203 9.78998 34.0742 9.78269 33.9795C9.77297 33.8872 9.74381 33.7681 9.71951 33.7196C9.69521 33.671 9.67334 33.6054 9.67334 33.5787C9.67334 33.5155 9.41332 32.8888 9.33069 32.7527C9.31854 32.7333 9.29667 32.6896 9.28452 32.6556C9.26994 32.6216 9.25293 32.5827 9.24321 32.5681C9.02207 32.2353 8.77663 31.9025 8.65513 31.7738C8.39025 31.4896 8.10107 31.2199 7.96012 31.1252C7.92853 31.1058 7.79488 31.0135 7.65879 30.9236C7.52271 30.8313 7.3769 30.7414 7.33316 30.722C7.29185 30.7025 7.23839 30.6782 7.21895 30.6661C7.13146 30.6151 6.92005 30.5179 6.89575 30.5179C6.87873 30.5179 6.83499 30.5009 6.79368 30.479C6.64302 30.4013 6.13027 30.2458 5.94801 30.224C5.84595 30.2118 5.71472 30.1851 5.6564 30.1657C5.53733 30.122 4.73783 30.0977 4.4608 30.1268Z" fill="#4FFF4B"/>
<path fill-rule="evenodd" clip-rule="evenodd" d="M24.594 43.2101C24.5066 43.2271 24.3389 43.2489 24.2174 43.2586C24.0983 43.2684 23.9671 43.2926 23.9282 43.3121C23.8893 43.3315 23.7945 43.3582 23.7144 43.368C23.5686 43.3898 23.4373 43.4335 23.1238 43.5671C23.0315 43.606 22.9149 43.6497 22.8687 43.6643C22.8225 43.6765 22.7666 43.7032 22.7472 43.7202C22.7277 43.7372 22.6694 43.7639 22.6208 43.7785C22.5722 43.7955 22.5188 43.8246 22.5042 43.8441C22.4872 43.8611 22.4604 43.8781 22.4459 43.8781C22.4215 43.8781 22.1154 44.0651 22.0522 44.1161C22.04 44.1283 22.0011 44.1526 21.9671 44.1696C21.9112 44.2012 21.605 44.4271 21.5807 44.4587C21.5734 44.4659 21.503 44.5267 21.4228 44.5947C21.3426 44.6603 21.2162 44.7769 21.1409 44.8497C21.0656 44.9226 20.9611 45.0222 20.91 45.0659C20.8566 45.1121 20.7059 45.2554 20.5723 45.3817C20.4386 45.5105 20.2077 45.7267 20.0619 45.8651C19.9137 46.0036 19.7023 46.2052 19.5856 46.3145C19.4714 46.4239 19.2551 46.6279 19.102 46.7688C18.7351 47.1064 18.7327 47.1089 18.7424 47.1332C18.7497 47.1502 19.0267 47.449 19.4544 47.8984C19.5516 48.0004 19.8918 48.3672 20.1956 48.6951C20.2831 48.7899 20.4848 49.0036 20.6476 49.1712C20.808 49.3389 20.9999 49.5405 21.0729 49.6206C21.1433 49.6984 21.2648 49.8247 21.3377 49.9024C21.4106 49.9777 21.5807 50.1599 21.7144 50.3032C21.848 50.449 21.9744 50.585 21.9939 50.6045C22.0133 50.6263 22.1883 50.8134 22.3827 51.0198C22.5771 51.2263 22.7739 51.4352 22.8201 51.4838C22.9197 51.5858 23.221 51.9041 23.5029 52.2053C23.6123 52.3219 23.763 52.4822 23.8383 52.5624C23.9136 52.6425 24.0546 52.7956 24.1542 52.9025C24.3729 53.1357 24.9027 53.6992 25.4081 54.2312C25.6147 54.4474 25.7654 54.6077 26.2344 55.113C26.6183 55.526 26.8662 55.7883 27.1384 56.0725C27.2599 56.1988 27.3838 56.33 27.413 56.364C27.4421 56.398 27.5539 56.5171 27.6633 56.6312C27.7726 56.7454 27.9889 56.9737 28.142 57.1389C28.2951 57.3065 28.4992 57.5227 28.5915 57.6223C28.6863 57.7219 28.7884 57.8337 28.8224 57.8701C28.8564 57.9065 28.9925 58.0499 29.1262 58.1908C29.5247 58.6086 30.2829 59.4175 30.3655 59.5122C30.3995 59.5511 30.9706 60.156 31.1431 60.3357C31.34 60.5398 31.9378 61.1738 32.103 61.3535C32.7616 62.0653 33.2597 62.4588 33.9499 62.8208C34.0374 62.8645 34.1176 62.9131 34.1321 62.9252C34.1443 62.9374 34.171 62.9471 34.1905 62.9471C34.2123 62.9471 34.2828 62.9738 34.3509 63.003C34.6109 63.1244 35.233 63.309 35.5173 63.3479C35.6388 63.3649 35.8283 63.3965 35.9401 63.4183C36.2366 63.4742 36.9243 63.4718 37.2572 63.4111C37.3958 63.3868 37.5756 63.3576 37.6558 63.3479C37.8186 63.3309 38.2293 63.2167 38.465 63.1268C38.5476 63.0953 38.6327 63.0685 38.6545 63.0685C38.674 63.0685 38.7323 63.0467 38.7809 63.02C38.8295 62.9957 38.9753 62.9228 39.1017 62.8621C39.228 62.8013 39.3884 62.7187 39.454 62.6799C39.5221 62.641 39.6144 62.5851 39.6606 62.5584C39.7068 62.5341 39.8064 62.4661 39.8793 62.4127C39.9522 62.3592 40.0518 62.2888 40.098 62.2572C40.1442 62.2256 40.2049 62.177 40.2317 62.1527C40.2608 62.126 40.341 62.0531 40.4139 61.9876C40.5354 61.8807 40.968 61.4799 41.228 61.2345C41.2839 61.1811 41.488 60.9892 41.68 60.8094C41.872 60.6296 42.1223 60.394 42.2365 60.2871C42.3507 60.1778 42.5305 60.0102 42.635 59.9106C42.7419 59.811 42.8805 59.6774 42.9461 59.6143C43.0093 59.5487 43.0749 59.4977 43.0919 59.4977C43.1138 59.4977 43.1162 59.4904 43.0967 59.4782C43.0822 59.4685 43.0238 59.4053 42.9655 59.3398C42.878 59.2353 42.5111 58.8442 42.0907 58.4021C42.0299 58.3389 41.8282 58.1252 41.6411 57.9284C41.454 57.7292 41.2061 57.4693 41.0919 57.3478C40.9777 57.2288 40.8295 57.0709 40.7639 56.998C40.6982 56.9252 40.601 56.8207 40.5476 56.7648C40.4941 56.709 40.2924 56.4952 40.098 56.2887C39.9036 56.0847 39.6557 55.8223 39.5488 55.7081C39.4395 55.594 39.2985 55.4458 39.2353 55.3802C39.1746 55.3122 39.0555 55.1883 38.9729 55.1009C38.8903 55.0134 38.674 54.7826 38.4942 54.5907C38.3143 54.3964 38.0616 54.1292 37.9328 53.9956C37.8064 53.862 37.6388 53.6871 37.5659 53.6069C37.4905 53.5268 37.3593 53.3883 37.2742 53.3008C36.832 52.8393 36.5136 52.4944 36.5063 52.4749C36.5015 52.4628 36.482 52.4531 36.465 52.4531C36.448 52.4531 36.4286 52.4385 36.4237 52.419C36.4164 52.3875 36.0495 51.9867 35.6996 51.6271C35.5683 51.4935 34.9122 50.7988 34.6546 50.5219C34.2123 50.0482 33.8794 49.6935 33.7433 49.5502C33.5052 49.3024 32.5817 48.3259 32.4918 48.2263C32.4481 48.1777 31.9038 47.5996 31.7871 47.4757C31.6972 47.3809 31.3813 47.0481 30.973 46.623C30.8394 46.4822 30.5988 46.2247 30.4384 46.0522C29.707 45.2651 29.3036 44.8449 29.1116 44.6676C28.9779 44.5437 28.6061 44.2546 28.419 44.1259C28.2975 44.0433 28.0958 43.9218 28.0083 43.8781C27.9549 43.8514 27.8941 43.8198 27.8747 43.8076C27.7726 43.7445 27.1699 43.4894 27.1189 43.4894C27.0995 43.4894 27.0436 43.4675 26.9925 43.4408C26.9439 43.4141 26.8346 43.3825 26.7495 43.3704C26.6669 43.3582 26.56 43.3315 26.5138 43.3121C26.4676 43.2926 26.3413 43.2684 26.2344 43.2586C26.1274 43.2514 25.9549 43.2271 25.848 43.2076C25.6074 43.1639 24.8176 43.1663 24.594 43.2101Z" fill="#4FFF4B"/>
<path d="M59.187 20.357V27.0946H55.1123V7H62.9075C67.6318 7 69.994 9.20646 69.994 13.6194C69.994 16.2396 69.0097 18.1702 67.0413 19.4113L69.9054 27.0946H65.4468L63.1142 20.357H59.187ZM62.9665 16.87C63.9311 16.87 64.6496 16.5745 65.122 15.9835C65.5944 15.3924 65.8306 14.6143 65.8306 13.6489C65.8306 12.6836 65.5747 11.9153 65.0629 11.344C64.5708 10.7727 63.8523 10.487 62.9075 10.487H59.187V16.87H62.9665Z" fill="#F4F3FF"/>
<path d="M84.233 16.9291V23.0756C84.2723 23.5485 84.3511 23.8834 84.4692 24.0804C84.5873 24.2577 84.8333 24.3857 85.2074 24.4645L85.0893 27.4492C84.0853 27.4492 83.2783 27.3802 82.668 27.2423C82.0775 27.1044 81.4771 26.8286 80.8669 26.4149C79.4496 27.1044 78.0027 27.4492 76.5264 27.4492C73.4753 27.4492 71.9497 25.8337 71.9497 22.6028C71.9497 21.0268 72.3729 19.9137 73.2193 19.2636C74.0658 18.5938 75.365 18.1998 77.1169 18.0816L80.2763 17.8452V16.9291C80.2763 16.3184 80.1385 15.9046 79.863 15.6879C79.5874 15.4515 79.1445 15.3333 78.5342 15.3333L72.9831 15.5697L72.865 12.8215C74.9713 12.2502 76.9693 11.9645 78.859 11.9645C80.7684 11.9645 82.1365 12.3585 82.9633 13.1466C83.8097 13.9346 84.233 15.1954 84.233 16.9291ZM77.5894 20.8298C76.487 20.9283 75.9358 21.5193 75.9358 22.6028C75.9358 23.6864 76.4181 24.2281 77.3827 24.2281C78.1307 24.2281 78.9476 24.1099 79.8334 23.8735L80.2763 23.7553V20.5934L77.5894 20.8298Z" fill="#F4F3FF"/>
<path d="M88.0048 27.0946V12.3191H91.9319V13.8853C93.5854 12.9003 95.1602 12.26 96.6563 11.9645V15.9539C95.0618 16.2888 93.6937 16.6336 92.552 16.9882L91.9615 17.195V27.0946H88.0048Z" fill="#F4F3FF"/>
<path d="M99.7882 14.0035C100.832 12.6442 102.574 11.9645 105.015 11.9645C107.455 11.9645 109.198 12.6442 110.241 14.0035C111.284 15.3432 111.806 17.2344 111.806 19.6773C111.806 24.8585 109.542 27.4492 105.015 27.4492C100.487 27.4492 98.2233 24.8585 98.2233 19.6773C98.2233 17.2344 98.7449 15.3432 99.7882 14.0035ZM102.83 23.0165C103.243 23.7258 103.971 24.0804 105.015 24.0804C106.058 24.0804 106.776 23.7258 107.17 23.0165C107.583 22.3073 107.79 21.1942 107.79 19.6773C107.79 18.1604 107.583 17.0571 107.17 16.3676C106.776 15.6781 106.058 15.3333 105.015 15.3333C103.971 15.3333 103.243 15.6781 102.83 16.3676C102.436 17.0571 102.239 18.1604 102.239 19.6773C102.239 21.1942 102.436 22.3073 102.83 23.0165Z" fill="#F4F3FF"/>
<path d="M55.1123 36.5508H62.996C65.0826 36.5508 66.6476 36.9744 67.6909 37.8215C68.7341 38.6489 69.2558 39.9984 69.2558 41.87C69.2558 42.9929 69.0885 43.8893 68.7538 44.5591C68.4192 45.2092 67.8483 45.7904 67.0413 46.3026C67.9271 46.6769 68.5767 47.2187 68.9901 47.9279C69.4231 48.6371 69.6396 49.6221 69.6396 50.883C69.6396 52.8333 69.0688 54.2813 67.9271 55.2269C66.7854 56.1726 65.1811 56.6454 63.1142 56.6454H55.1123V36.5508ZM62.9075 48.253H59.187V53.1584H62.9075C63.7933 53.1584 64.4429 52.9811 64.8563 52.6265C65.2893 52.2719 65.5059 51.6217 65.5059 50.6761C65.5059 49.0607 64.6397 48.253 62.9075 48.253ZM62.7894 40.0378H59.187V44.8251H62.8189C64.3543 44.8251 65.122 44.0272 65.122 42.4314C65.122 40.8357 64.3445 40.0378 62.7894 40.0378Z" fill="#F4F3FF"/>
<path d="M84.06 46.4799V52.6265C84.0993 53.0993 84.1781 53.4342 84.2962 53.6312C84.4143 53.8085 84.6603 53.9366 85.0343 54.0154L84.9162 57C83.9123 57 83.1052 56.931 82.495 56.7931C81.9045 56.6552 81.3041 56.3794 80.6939 55.9657C79.2766 56.6552 77.8297 57 76.3534 57C73.3022 57 71.7767 55.3846 71.7767 52.1537C71.7767 50.5776 72.1999 49.4645 73.0463 48.8144C73.8928 48.1446 75.192 47.7506 76.9439 47.6324L80.1033 47.396V46.4799C80.1033 45.8692 79.9655 45.4555 79.6899 45.2388C79.4144 45.0024 78.9714 44.8842 78.3612 44.8842L72.8101 45.1206L72.692 42.3723C74.7983 41.801 76.7963 41.5154 78.686 41.5154C80.5954 41.5154 81.9635 41.9094 82.7903 42.6974C83.6367 43.4854 84.06 44.7463 84.06 46.4799ZM77.4164 50.3806C76.314 50.4791 75.7628 51.0701 75.7628 52.1537C75.7628 53.2372 76.2451 53.779 77.2097 53.779C77.9577 53.779 78.7746 53.6608 79.6604 53.4243L80.1033 53.3061V50.1442L77.4164 50.3806Z" fill="#F4F3FF"/>
<path d="M91.7884 56.6454H87.8318V41.87H91.7589V42.6974C93.0975 41.9094 94.3278 41.5154 95.4498 41.5154C97.4183 41.5154 98.7765 42.0965 99.5246 43.2589C100.273 44.4212 100.647 46.2139 100.647 48.6371V56.6454H96.6899V48.7553C96.6899 47.4945 96.5423 46.5686 96.247 45.9775C95.9518 45.3668 95.3612 45.0615 94.4754 45.0615C93.6683 45.0615 92.8908 45.1994 92.1428 45.4752L91.7884 45.5934V56.6454Z" fill="#F4F3FF"/>
<path d="M108.109 56.6454H104.152V35.9598H108.109V47.721L109.615 47.4551L112.538 41.87H116.967L113.129 48.8735L117.174 56.6454H112.715L109.733 50.883L108.109 51.1489V56.6454Z" fill="#F4F3FF"/>
</svg>
