<svg
  width="153"
  height="80"
  viewBox="0 0 153 80"
  fill="currentColor"
  xmlns="http://www.w3.org/2000/svg"
>
  <g clip-path="url(#clip0_333_695)" fill-rule="evenodd">
    <path fill-rule="evenodd" clip-rule="evenodd"
      d="M5.771 0.732493C5.771 0.76912 5.60611 0.811852 5.28245 0.854584C4.78779 0.921734 3.98474 1.20865 3.42291 1.51998C2.53131 2.00834 1.80155 2.689 1.20308 3.58637C0.922162 4.00758 0.583232 4.74318 0.473309 5.17049C0.445828 5.27122 0.41224 5.36889 0.396973 5.38721C0.381706 5.40552 0.354225 5.53677 0.338958 5.68022C0.320638 5.82063 0.28705 6.03123 0.262623 6.15027C0.195448 6.4494 0.195448 7.54821 0.259569 7.79239C0.283997 7.89007 0.320638 8.09457 0.335905 8.24718C0.354225 8.3998 0.381706 8.54325 0.396973 8.56157C0.41224 8.57988 0.445828 8.67755 0.473309 8.77828C0.534377 9.01941 0.781704 9.63902 0.891628 9.82826C0.906895 9.85268 0.937429 9.91983 0.96491 9.97477C0.989337 10.0297 1.05346 10.1426 1.10842 10.222C1.16338 10.3014 1.2214 10.3868 1.23666 10.4143C1.45346 10.7531 1.78933 11.1529 2.12521 11.4734C2.30536 11.6444 2.48857 11.8092 2.53131 11.8367C2.57406 11.8611 2.62597 11.8977 2.64124 11.916C2.67177 11.9496 2.94963 12.1449 3.10841 12.2457C3.30078 12.3708 3.97558 12.7127 4.09161 12.7462C4.13436 12.7584 4.2168 12.792 4.27482 12.8225C4.33283 12.8561 4.41528 12.8805 4.45802 12.8805C4.50077 12.8805 4.59237 12.908 4.6626 12.9416C4.73283 12.9721 4.85802 13.0087 4.93741 13.0179C5.0168 13.0301 5.17252 13.0606 5.28245 13.085C5.99695 13.2468 6.78473 13.2529 7.46564 13.1064C7.58473 13.082 7.76488 13.0484 7.8687 13.0331C7.97251 13.0148 8.12824 12.9751 8.21373 12.9416C8.29923 12.908 8.39999 12.8805 8.43663 12.8805C8.47327 12.8805 8.56793 12.847 8.64732 12.8042C8.72671 12.7615 8.80915 12.7279 8.83052 12.7279C8.8519 12.7279 9.00151 12.6577 9.16029 12.5753C9.31907 12.4929 9.4809 12.4105 9.5206 12.3922C9.55724 12.3769 9.62747 12.3372 9.67327 12.3067C9.71907 12.2762 9.81678 12.209 9.89311 12.1602C10.342 11.8733 10.9618 11.3056 11.3038 10.8752C11.4839 10.6463 11.8351 10.1304 11.8809 10.0297C11.8962 9.99308 11.9206 9.94424 11.9359 9.91983C11.9817 9.84657 12.2046 9.36431 12.229 9.27885C12.2412 9.23612 12.2778 9.15371 12.3084 9.09571C12.342 9.03772 12.3664 8.95836 12.3664 8.91868C12.3664 8.879 12.3939 8.78438 12.4275 8.70502C12.458 8.62566 12.5007 8.45168 12.5191 8.32044C12.5404 8.18614 12.5679 8.04268 12.5862 7.99995C12.6778 7.75577 12.6748 6.1869 12.5801 5.93661C12.5618 5.88778 12.5343 5.74127 12.516 5.61002C12.5007 5.48183 12.461 5.317 12.4275 5.24375C12.3939 5.17049 12.3664 5.07893 12.3664 5.03619C12.3664 4.99346 12.345 4.92021 12.3175 4.86832C12.2931 4.81948 12.2351 4.68824 12.1923 4.57835C11.8992 3.84276 11.3954 3.10411 10.7817 2.50891C10.403 2.14569 10.3114 2.06939 9.93892 1.81605C9.65189 1.61765 8.91297 1.22086 8.83663 1.22086C8.81526 1.22086 8.73587 1.19339 8.66564 1.16286C8.41831 1.05298 7.83205 0.888159 7.57251 0.854584C7.27939 0.817956 7.1145 0.772172 7.1145 0.729441C7.1145 0.714179 6.83359 0.70197 6.44275 0.70197C6.03359 0.70197 5.771 0.714179 5.771 0.732493Z"
    />
    <path fill-rule="evenodd" clip-rule="evenodd"
      d="M17.2122 0.741643C17.203 0.766062 17.1358 0.811846 17.0626 0.848473C16.8946 0.927832 16.7847 1.04382 16.6961 1.23611L16.6259 1.38872L16.6351 6.54706C16.6442 11.6291 16.6442 11.7085 16.7053 11.8733C16.7816 12.0778 16.8549 12.1663 17.0534 12.2853L17.2061 12.3769L23.8625 12.3922C29.9175 12.4074 30.5465 12.4135 30.8243 12.4593C30.9923 12.4868 31.2946 12.5326 31.4961 12.5631C31.6976 12.5906 31.9449 12.6394 32.0457 12.6669C32.1465 12.6974 32.3022 12.731 32.3907 12.7401C32.4823 12.7523 32.6228 12.789 32.7052 12.8195C32.7877 12.8531 32.8945 12.8805 32.9403 12.8805C32.9861 12.8836 33.0778 12.9049 33.1449 12.9294C33.2121 12.9568 33.3373 12.9965 33.4197 13.0179C33.5999 13.0637 34.0396 13.2254 34.2136 13.3109C34.2808 13.3414 34.3571 13.3689 34.3846 13.3689C34.4121 13.3689 34.4976 13.4025 34.577 13.4452C34.6564 13.4879 34.7358 13.5215 34.751 13.5215C34.7785 13.5215 35.2487 13.7474 35.3892 13.8267C35.4136 13.842 35.4838 13.8756 35.5419 13.9061C35.8014 14.0312 36.238 14.2724 36.3052 14.3273C36.3296 14.3487 36.4335 14.4128 36.5342 14.4677C36.635 14.5257 36.7235 14.5776 36.7327 14.5867C36.7419 14.5959 36.8182 14.6508 36.9006 14.7088C37.2579 14.953 37.4533 15.0934 37.4808 15.1239C37.4991 15.1423 37.548 15.1819 37.5907 15.2094C37.6335 15.2338 37.7312 15.3101 37.8075 15.3742C37.8838 15.4383 37.9938 15.5299 38.0579 15.5818C38.6197 16.0366 39.5235 16.9797 39.9938 17.6054C40.0212 17.6421 40.0609 17.6909 40.0762 17.7123C40.2167 17.8862 40.3968 18.1304 40.3968 18.1457C40.3968 18.1671 40.58 18.4357 40.6136 18.4662C40.7083 18.5516 41.5571 20.093 41.5571 20.1816C41.5571 20.1999 41.5907 20.2853 41.6304 20.3708C41.8594 20.8592 41.9693 21.1461 42.0609 21.4727C42.0853 21.5551 42.1311 21.7016 42.1647 21.7932C42.1983 21.8847 42.2258 21.9915 42.2289 22.0251C42.2289 22.0618 42.2472 22.1381 42.2716 22.193C42.3571 22.3975 42.5556 23.3345 42.5769 23.6245C42.5861 23.7497 42.6166 23.9572 42.6472 24.0824C42.7235 24.4212 42.7235 26.6402 42.6472 26.9759C42.6197 27.101 42.58 27.3574 42.5647 27.5467C42.5495 27.739 42.522 27.9252 42.5067 27.9679C42.4915 28.0076 42.4426 28.206 42.3998 28.4105C42.3571 28.6119 42.3052 28.8256 42.2808 28.8805C42.2563 28.9355 42.2289 29.0514 42.2166 29.1339C42.2014 29.2163 42.1678 29.3323 42.1373 29.3933C42.1067 29.4513 42.0731 29.5612 42.0609 29.6375C42.0487 29.7138 42.0243 29.7901 42.009 29.8115C41.9937 29.8298 41.954 29.9275 41.9235 30.0251C41.8502 30.2601 41.664 30.7027 41.6212 30.7455C41.6029 30.7638 41.5876 30.8004 41.5876 30.8248C41.5876 30.8889 41.1968 31.7008 41.1174 31.8046C41.096 31.829 41.0655 31.884 41.0441 31.9267C40.9281 32.1709 40.4823 32.8851 40.3602 33.0255C40.3388 33.0499 40.3052 33.0988 40.2838 33.1384C40.2655 33.1751 40.235 33.2239 40.2167 33.2453C40.1983 33.2666 40.0731 33.4223 39.9418 33.5902C39.8105 33.758 39.6609 33.9381 39.6151 33.9931C39.5663 34.048 39.4716 34.1579 39.4044 34.2373C39.1754 34.5089 38.6228 35.0644 38.3449 35.3025C38.1892 35.4368 38.0365 35.5711 38.0029 35.6047C37.9663 35.6413 37.8777 35.7146 37.8014 35.7725C37.7251 35.8305 37.6487 35.8916 37.6304 35.9099C37.5449 35.9893 36.8579 36.4685 36.5953 36.6333C36.5129 36.6852 36.3938 36.7615 36.3327 36.8012C36.2747 36.8378 36.2167 36.8714 36.2045 36.8714C36.1953 36.8714 36.1251 36.9141 36.0487 36.9629C35.9754 37.0148 35.8686 37.0759 35.8106 37.1033C35.6487 37.1796 35.5296 37.2376 35.4808 37.2712C35.4564 37.2865 35.4014 37.3139 35.3587 37.3323C35.3159 37.3536 35.1388 37.436 34.9617 37.5215C34.7846 37.6039 34.5739 37.6924 34.4884 37.7168C34.406 37.7413 34.3083 37.7809 34.2747 37.8054C34.2411 37.8298 34.1861 37.8481 34.1526 37.8481C34.119 37.8481 34.0243 37.8817 33.9388 37.9244C33.8564 37.9641 33.7587 38.0007 33.7281 38.0007C33.6945 38.0007 33.5846 38.0343 33.4777 38.077C33.3739 38.1197 33.1938 38.1747 33.0808 38.1991C32.9648 38.2266 32.8213 38.2663 32.7602 38.2907C32.6991 38.312 32.5617 38.3426 32.4549 38.3548C32.348 38.3639 32.2106 38.3944 32.1526 38.4189C32.0945 38.4433 31.8961 38.4738 31.7098 38.4921C31.5266 38.5074 31.319 38.5349 31.2518 38.5562C30.9251 38.6447 30.5801 38.6508 23.9999 38.6692L17.2366 38.6875L17.0687 38.7851C16.8458 38.9133 16.7847 38.9866 16.7053 39.2155L16.6412 39.4048V44.4868V49.5688L16.7084 49.7581C16.7816 49.9778 16.8732 50.0816 17.087 50.1884L17.2366 50.2647L23.6488 50.28C29.7098 50.2953 31.0045 50.283 31.4594 50.2098C31.5633 50.1945 31.89 50.1671 32.1831 50.1487C32.4762 50.1335 32.7938 50.0969 32.8854 50.0724C32.977 50.048 33.1846 50.0205 33.3434 50.0083C33.5022 49.9992 33.7312 49.9656 33.8472 49.9351C33.9663 49.9015 34.1648 49.8618 34.29 49.8466C34.4151 49.8283 34.6442 49.7825 34.7938 49.7397C34.9464 49.7001 35.1449 49.6573 35.2365 49.6451C35.3281 49.6329 35.4533 49.6024 35.5113 49.578C35.5693 49.5535 35.7037 49.52 35.8106 49.5047C35.9174 49.4895 36.0457 49.4559 36.0945 49.4284C36.1464 49.404 36.2564 49.3735 36.3449 49.3643C36.4335 49.3552 36.5403 49.3277 36.5892 49.3033C36.693 49.2514 37.038 49.1415 37.0991 49.1415C37.1266 49.1415 37.1999 49.114 37.2609 49.0835C37.3251 49.0499 37.435 49.0133 37.5052 49.0011C37.5754 48.9919 37.6823 48.9553 37.7403 48.9248C37.7983 48.8912 37.8716 48.8668 37.9052 48.8668C37.9357 48.8668 38.0396 48.8332 38.1342 48.7935C38.4976 48.6409 38.7693 48.531 38.9006 48.4822C38.977 48.4547 39.1022 48.4089 39.1785 48.3815C39.2579 48.354 39.3556 48.3052 39.3983 48.2777C39.4441 48.2502 39.493 48.2258 39.5113 48.2258C39.5296 48.2258 39.664 48.1678 39.8105 48.1007C39.9571 48.0305 40.1525 47.9389 40.2441 47.8992C40.3357 47.8565 40.4334 47.8107 40.4579 47.7954C40.4823 47.7802 40.5373 47.7527 40.58 47.7374C40.6594 47.7039 40.8854 47.5879 41.0686 47.4841C41.1266 47.4505 41.2182 47.4017 41.267 47.3803C41.3189 47.3559 41.38 47.3223 41.4044 47.3071C41.4289 47.2918 41.5052 47.2521 41.5724 47.2155C41.7556 47.1209 42.2319 46.8431 42.5342 46.6539C42.5922 46.6173 42.696 46.5532 42.7632 46.5104C43.0991 46.3029 43.4808 46.0526 43.7098 45.8939C43.7953 45.8328 43.8869 45.7687 43.9205 45.7474C43.951 45.726 44.064 45.6436 44.1739 45.5612C44.2808 45.4818 44.3815 45.4177 44.3968 45.4177C44.4151 45.4177 44.4273 45.4055 44.4273 45.3933C44.4273 45.378 44.4914 45.3201 44.5739 45.2621C44.7479 45.1369 45.6212 44.4379 45.7708 44.3006C45.8288 44.2487 46.0304 44.0686 46.2136 43.9038C46.7937 43.3819 47.7342 42.4234 48.3937 41.6787C48.6777 41.3582 49.4991 40.3082 49.7708 39.9206C50.1158 39.4261 50.6563 38.6173 50.6563 38.5959C50.6563 38.5867 50.7174 38.486 50.7937 38.367C50.87 38.2479 50.9311 38.1411 50.9311 38.1258C50.9311 38.1136 50.9555 38.0679 50.9891 38.0282C51.0197 37.9885 51.0838 37.8817 51.1326 37.7932C51.1815 37.7046 51.2578 37.5673 51.3006 37.4879C51.4593 37.2102 51.9387 36.267 52.0303 36.0625C52.1128 35.8763 52.2258 35.6291 52.3479 35.3696C52.409 35.2384 52.4578 35.1163 52.4578 35.0949C52.4578 35.0705 52.4761 35.0247 52.5006 34.9912C52.525 34.9576 52.5708 34.8538 52.6044 34.7622C52.7937 34.2434 52.8364 34.1274 52.8884 34.0114C52.9189 33.9412 52.9464 33.8649 52.9464 33.8435C52.9464 33.8191 52.9738 33.7489 53.0044 33.6848C53.038 33.6207 53.0777 33.5047 53.096 33.4254C53.1113 33.349 53.1479 33.2422 53.1723 33.1934C53.1998 33.1415 53.2212 33.0774 53.2212 33.0499C53.2212 33.0225 53.2639 32.8637 53.3158 32.6989C53.4899 32.1434 53.5815 31.8199 53.612 31.6672C53.6303 31.5818 53.667 31.4322 53.6914 31.3315C53.7952 30.9225 53.8929 30.4738 53.8929 30.4097C53.8929 30.3731 53.9326 30.1625 53.9815 29.9366C54.0303 29.7138 54.0792 29.4208 54.0914 29.2865C54.1036 29.1522 54.1372 28.9233 54.1708 28.7767C54.2013 28.6302 54.2288 28.4166 54.2319 28.3036C54.2319 27.9496 54.3082 27.275 54.3479 27.2628C54.3906 27.2476 54.3967 23.8076 54.354 23.8076C54.3082 23.8076 54.2929 23.6856 54.2441 23.0141C54.2196 22.6692 54.1799 22.309 54.1555 22.2113C54.1311 22.1167 54.1036 21.9183 54.0914 21.7687C54.0792 21.6222 54.0456 21.3994 54.012 21.2712C53.9815 21.143 53.9296 20.8805 53.896 20.6913C53.8624 20.499 53.8227 20.3036 53.8044 20.2548C53.783 20.206 53.7555 20.0625 53.7372 19.9343C53.7189 19.8092 53.6853 19.6688 53.6609 19.623C53.6395 19.5772 53.612 19.4826 53.6029 19.4093C53.5937 19.3361 53.5509 19.1651 53.5112 19.0308C53.4685 18.8965 53.3861 18.6218 53.328 18.4204C53.267 18.2189 53.2059 18.0175 53.1906 17.9687C53.1723 17.9229 53.1479 17.8496 53.1296 17.8008C53.1143 17.755 53.0807 17.6573 53.0593 17.581C53.0013 17.4009 52.9586 17.2849 52.8364 16.9706C52.7815 16.8271 52.7265 16.6775 52.7143 16.6348C52.7021 16.5921 52.6685 16.5097 52.638 16.4517C52.6044 16.3937 52.58 16.3296 52.58 16.3082C52.58 16.2869 52.5525 16.2105 52.5189 16.1403C52.4884 16.0671 52.3632 15.7893 52.241 15.5207C52.1219 15.2552 52.012 15.0141 51.9998 14.9866C51.9845 14.9622 51.8746 14.7424 51.7525 14.4982C51.6303 14.254 51.4929 13.9854 51.4441 13.903C51.3983 13.8176 51.3403 13.7046 51.3128 13.6497C51.2853 13.5917 51.1937 13.436 51.1113 13.3017C51.0258 13.1674 50.9494 13.0362 50.9372 13.0057C50.9281 12.9782 50.8975 12.9233 50.87 12.8805C50.8426 12.8378 50.7845 12.7493 50.7418 12.6821C50.699 12.615 50.6166 12.4837 50.5586 12.3922C50.5006 12.3006 50.3815 12.1144 50.296 11.9801C50.2105 11.8458 50.1281 11.7207 50.1158 11.7054C50.0151 11.5833 49.7708 11.2292 49.7708 11.2079C49.7708 11.1957 49.7464 11.1621 49.7189 11.1346C49.6884 11.1072 49.6303 11.0339 49.5876 10.9729C49.4136 10.7165 48.5281 9.6268 48.1494 9.20254C47.9265 8.9492 47.4807 8.4822 47.1601 8.16171C46.6441 7.64283 46.4701 7.478 45.9235 6.99575C45.8472 6.93165 45.6975 6.79735 45.5907 6.70273C45.0685 6.24183 43.2151 4.87442 42.9922 4.78895C42.9678 4.77674 42.925 4.74622 42.9037 4.71875C42.8823 4.69128 42.8518 4.66992 42.8395 4.66992C42.8243 4.66992 42.6319 4.55698 42.406 4.41658C42.1831 4.27922 41.9663 4.14798 41.9235 4.12661C41.838 4.08083 41.7525 4.03199 41.4808 3.87938C41.1724 3.70235 39.8228 3.03085 39.7342 3.00643C39.6854 2.99727 39.6273 2.9698 39.6029 2.94538C39.5785 2.92402 39.5022 2.89044 39.435 2.86908C39.3678 2.84771 39.2976 2.82024 39.2793 2.80498C39.2609 2.78972 39.151 2.74393 39.035 2.7012C38.9189 2.65542 38.7968 2.60353 38.7632 2.58216C38.7296 2.5608 38.6625 2.53333 38.6106 2.52112C38.5617 2.50891 38.464 2.47228 38.3968 2.44176C38.3296 2.41124 38.2136 2.36545 38.1373 2.34103C38.0609 2.31661 37.8625 2.24336 37.6945 2.18231C37.5266 2.12127 37.3067 2.04496 37.206 2.01444C37.1052 1.98392 36.9617 1.93813 36.8854 1.91066C36.5525 1.80078 36.2411 1.70921 36.1861 1.70921C36.1556 1.70921 36.0823 1.6909 36.0274 1.66648C35.9693 1.64206 35.7739 1.58712 35.5877 1.54134C35.4045 1.49861 35.1968 1.44367 35.1297 1.41925C35.0625 1.39483 34.9251 1.36736 34.8243 1.3582C34.7235 1.34599 34.5953 1.31852 34.5403 1.2941C34.4823 1.27274 34.3174 1.23916 34.1739 1.22085C34.0274 1.20254 33.8411 1.16896 33.7556 1.14454C33.6732 1.12012 33.4777 1.08655 33.322 1.06824C33.1694 1.05297 32.8457 1.00414 32.6045 0.964459C32.3633 0.92478 32.0029 0.882048 31.8014 0.869839C31.2396 0.839316 30.6442 0.769114 30.632 0.732487C30.6228 0.711121 28.5373 0.701964 23.9236 0.701964C18.3358 0.701964 17.2244 0.708068 17.2122 0.741643Z"
    />
    <path fill-rule="evenodd" clip-rule="evenodd"
      d="M5.8168 37.8756C5.70077 37.8909 5.56642 37.9153 5.52062 37.9336C5.47787 37.9519 5.35268 37.9733 5.24581 37.9855C5.03818 38.0038 4.44887 38.1778 4.19544 38.2938C4.10994 38.3334 4.01223 38.367 3.97864 38.367C3.94505 38.367 3.88399 38.3914 3.84429 38.425C3.8046 38.4555 3.72521 38.4922 3.6733 38.5013C3.61834 38.5135 3.56643 38.5349 3.55727 38.5501C3.54811 38.5654 3.4504 38.6295 3.34048 38.6936C3.06262 38.8554 3.0504 38.8615 2.94048 38.9378C2.88857 38.9775 2.83056 39.008 2.81224 39.008C2.79697 39.008 2.76949 39.0263 2.75727 39.0477C2.74506 39.066 2.65651 39.1423 2.56491 39.2125C2.4275 39.3163 2.14048 39.5666 2.03972 39.6703C1.92674 39.7863 1.7527 39.9847 1.62445 40.1434C1.53896 40.2503 1.45041 40.3571 1.42598 40.3846C1.40461 40.409 1.37407 40.4517 1.36186 40.4761C1.3527 40.5005 1.27331 40.6226 1.19087 40.7478C1.10537 40.8729 1.01682 41.0194 0.992396 41.0744C0.967969 41.1263 0.934381 41.1782 0.916061 41.1904C0.900794 41.1995 0.87026 41.2667 0.851939 41.3369C0.833619 41.4071 0.803084 41.4834 0.784764 41.5047C0.751176 41.5475 0.696215 41.6848 0.564917 42.0755C0.519116 42.2098 0.454994 42.3868 0.42446 42.4723C0.393926 42.5547 0.360338 42.7195 0.351178 42.8386C0.338964 42.9546 0.30843 43.1408 0.280949 43.2506C0.213774 43.504 0.204614 44.6669 0.268736 44.8378C0.290109 44.8928 0.320644 45.0728 0.338964 45.2346C0.354231 45.3933 0.393926 45.5917 0.42446 45.6772C0.454994 45.7596 0.516063 45.9397 0.561864 46.074C0.674841 46.4097 0.726749 46.541 0.793924 46.6844C0.824458 46.7516 0.864153 46.8401 0.882473 46.8828C0.900794 46.9256 0.946595 47.011 0.98629 47.0721C1.02293 47.1331 1.09927 47.2644 1.15728 47.3621C1.27942 47.5696 1.31606 47.6215 1.61224 48C1.80461 48.2472 2.21377 48.6532 2.51911 48.9004C2.80613 49.1324 3.28857 49.462 3.39239 49.4925C3.43208 49.5047 3.49926 49.5414 3.53895 49.5719C3.57864 49.6055 3.62445 49.6299 3.63971 49.6299C3.65498 49.6299 3.78017 49.6848 3.91452 49.752C4.05192 49.8191 4.18017 49.8741 4.20154 49.8741C4.22292 49.8741 4.28704 49.8985 4.342 49.9321C4.39696 49.9626 4.50688 49.9962 4.58933 50.0084C4.66872 50.0175 4.76337 50.045 4.80307 50.0694C4.83971 50.0969 4.99849 50.1305 5.15116 50.1488C5.30688 50.164 5.47177 50.1946 5.51757 50.2159C5.57253 50.2373 5.86871 50.2556 6.32062 50.2648C6.90993 50.2739 7.07787 50.2678 7.26718 50.2251C7.39237 50.1976 7.60916 50.161 7.74962 50.1457C7.88702 50.1305 8.03053 50.0999 8.07023 50.0755C8.10687 50.0511 8.21679 50.0175 8.31755 49.9992C8.41526 49.9809 8.51297 49.9534 8.53129 49.9382C8.54961 49.9229 8.65954 49.8741 8.77557 49.8313C8.8916 49.7856 9.03206 49.7245 9.08396 49.6909C9.13893 49.6574 9.20305 49.6299 9.22747 49.6299C9.25496 49.6299 9.30686 49.6024 9.34961 49.5719C9.38931 49.5383 9.46259 49.5017 9.50534 49.4925C9.55114 49.4803 9.58778 49.459 9.58778 49.4406C9.58778 49.4254 9.63358 49.3949 9.68854 49.3704C9.74045 49.346 9.86259 49.2697 9.95419 49.2026C10.0458 49.1354 10.171 49.0469 10.229 49.0072C10.5527 48.7875 11.1633 48.1678 11.4107 47.8138C11.4687 47.7283 11.5572 47.6062 11.6061 47.5391C11.6549 47.4719 11.716 47.3712 11.7435 47.3163C11.771 47.2644 11.8046 47.2186 11.8168 47.2186C11.829 47.2186 11.8504 47.182 11.8626 47.1362C11.8717 47.0935 11.9084 47.0202 11.942 46.9805C11.9725 46.9378 12 46.8828 12 46.8554C12 46.8279 12.0183 46.7791 12.0427 46.7455C12.0641 46.7119 12.1282 46.5746 12.1801 46.4403C12.2351 46.309 12.2901 46.1839 12.3023 46.1656C12.3175 46.1503 12.345 46.0618 12.3633 45.9733C12.3817 45.8848 12.4152 45.7749 12.4397 45.7291C12.461 45.6833 12.4916 45.5582 12.5007 45.4483C12.513 45.3384 12.5465 45.1736 12.574 45.082C12.6504 44.8348 12.6504 43.3086 12.574 43.0828C12.5465 42.9973 12.513 42.8355 12.5038 42.7165C12.4916 42.6005 12.4549 42.4509 12.4244 42.3899C12.3939 42.3289 12.3664 42.2464 12.3664 42.2129C12.3664 42.1335 12.0397 41.346 11.9359 41.1751C11.9206 41.1507 11.8931 41.0957 11.8778 41.053C11.8595 41.0103 11.8381 40.9614 11.8259 40.9431C11.5481 40.525 11.2397 40.1068 11.087 39.945C10.7542 39.5879 10.3908 39.2491 10.2137 39.1301C10.174 39.1057 10.0061 38.9897 9.83511 38.8767C9.66411 38.7608 9.48091 38.6478 9.42595 38.6234C9.37404 38.599 9.30686 38.5685 9.28244 38.5532C9.17251 38.4891 8.90687 38.367 8.87633 38.367C8.85496 38.367 8.8 38.3456 8.74809 38.3182C8.55878 38.2205 7.9145 38.0252 7.6855 37.9977C7.55725 37.9824 7.39237 37.9488 7.31909 37.9244C7.16947 37.8695 6.16489 37.839 5.8168 37.8756Z"
    />
    <path fill-rule="evenodd" clip-rule="evenodd"
      d="M31.1144 54.3152C31.0045 54.3365 30.7938 54.364 30.6411 54.3762C30.4915 54.3884 30.3266 54.4189 30.2778 54.4433C30.2289 54.4678 30.1098 54.5013 30.0091 54.5135C29.8258 54.541 29.661 54.596 29.2671 54.7638C29.151 54.8127 29.0045 54.8676 28.9465 54.8859C28.8884 54.9012 28.8182 54.9348 28.7938 54.9561C28.7694 54.9775 28.6961 55.0111 28.635 55.0294C28.5739 55.0507 28.5068 55.0874 28.4884 55.1118C28.4671 55.1332 28.4335 55.1545 28.4152 55.1545C28.3846 55.1545 27.9999 55.3896 27.9205 55.4536C27.9052 55.4689 27.8564 55.4994 27.8136 55.5208C27.7434 55.5605 27.3587 55.8443 27.3281 55.884C27.319 55.8932 27.2304 55.9695 27.1297 56.0549C27.0289 56.1374 26.8701 56.2839 26.7755 56.3754C26.6808 56.467 26.5495 56.5921 26.4854 56.6471C26.4182 56.7051 26.2289 56.8852 26.061 57.0439C25.893 57.2057 25.603 57.4773 25.4198 57.6513C25.2335 57.8253 24.9679 58.0786 24.8213 58.216C24.6778 58.3533 24.406 58.6097 24.2137 58.7867C23.7526 59.211 23.7495 59.214 23.7618 59.2446C23.7709 59.2659 24.119 59.6414 24.6564 60.206C24.7785 60.3342 25.206 60.7951 25.5877 61.2072C25.6976 61.3262 25.9511 61.5948 26.1556 61.8054C26.3572 62.016 26.5984 62.2694 26.69 62.3701C26.7785 62.4678 26.9312 62.6265 27.0228 62.7242C27.1144 62.8188 27.3281 63.0477 27.4961 63.2278C27.664 63.4109 27.8228 63.5818 27.8472 63.6063C27.8717 63.6337 28.0915 63.8688 28.3358 64.1282C28.58 64.3876 28.8274 64.6501 28.8854 64.7112C29.0106 64.8394 29.3892 65.2392 29.7434 65.6177C29.8808 65.7642 30.0701 65.9657 30.1648 66.0664C30.2594 66.1671 30.4365 66.3594 30.5617 66.4937C30.8365 66.7867 31.5022 67.4949 32.1373 68.1633C32.3968 68.435 32.5861 68.6364 33.1754 69.2713C33.6579 69.7902 33.9693 70.1198 34.3113 70.4769C34.464 70.6356 34.6197 70.8005 34.6564 70.8432C34.693 70.8859 34.8335 71.0355 34.9709 71.1789C35.1083 71.3224 35.38 71.6093 35.5724 71.8169C35.7648 72.0275 36.0212 72.2991 36.1373 72.4243C36.2564 72.5494 36.3846 72.6898 36.4273 72.7356C36.4701 72.7814 36.6411 72.9615 36.809 73.1385C37.3098 73.6635 38.2624 74.6799 38.3663 74.7989C38.409 74.8478 39.1266 75.6078 39.3434 75.8337C39.5907 76.09 40.3418 76.8867 40.5495 77.1126C41.3769 78.0069 42.0029 78.5013 42.8701 78.9561C42.98 79.0111 43.0807 79.0721 43.0991 79.0874C43.1143 79.1026 43.1479 79.1148 43.1724 79.1148C43.1998 79.1148 43.2884 79.1484 43.3739 79.1851C43.7006 79.3377 44.4823 79.5696 44.8395 79.6185C44.9922 79.6398 45.2304 79.6795 45.3708 79.707C45.7433 79.7772 46.6075 79.7741 47.0258 79.6978C47.1998 79.6673 47.4258 79.6307 47.5265 79.6185C47.7311 79.5971 48.2471 79.4537 48.5433 79.3407C48.6471 79.301 48.754 79.2675 48.7815 79.2675C48.8059 79.2675 48.8792 79.24 48.9403 79.2064C49.0013 79.1759 49.1845 79.0843 49.3433 79.008C49.5021 78.9317 49.7036 78.8279 49.7861 78.7791C49.8716 78.7303 49.9876 78.6601 50.0456 78.6265C50.1036 78.596 50.2288 78.5105 50.3204 78.4433C50.412 78.3762 50.5372 78.2877 50.5952 78.248C50.6532 78.2083 50.7296 78.1473 50.7632 78.1168C50.7998 78.0832 50.9006 77.9916 50.9922 77.9092C51.1448 77.7749 51.6883 77.2713 52.0151 76.963C52.0853 76.8958 52.3418 76.6547 52.583 76.4289C52.8242 76.203 53.1387 75.9069 53.2822 75.7726C53.4257 75.6353 53.6517 75.4247 53.783 75.2995C53.9173 75.1744 54.0914 75.0065 54.1738 74.9271C54.2532 74.8447 54.3357 74.7806 54.357 74.7806C54.3845 74.7806 54.3876 74.7715 54.3631 74.7562C54.3448 74.744 54.2715 74.6646 54.1983 74.5822C54.0883 74.451 53.6273 73.9596 53.099 73.4041C53.0227 73.3247 52.7693 73.0561 52.5341 72.8089C52.299 72.5586 51.9876 72.232 51.8441 72.0794C51.7006 71.9298 51.5143 71.7314 51.4319 71.6398C51.3494 71.5483 51.2273 71.417 51.1601 71.3468C51.0929 71.2766 50.8395 71.008 50.5952 70.7486C50.3509 70.4922 50.0395 70.1625 49.9051 70.0191C49.7677 69.8756 49.5906 69.6894 49.5113 69.607C49.4349 69.5216 49.2853 69.3659 49.1815 69.256C49.0777 69.1461 48.8059 68.8562 48.58 68.615C48.354 68.3709 48.0365 68.0351 47.8746 67.8672C47.7158 67.6994 47.5052 67.4796 47.4136 67.3789C47.3189 67.2781 47.154 67.1042 47.0471 66.9943C46.4914 66.4144 46.0914 65.9809 46.0823 65.9565C46.0762 65.9412 46.0517 65.929 46.0304 65.929C46.009 65.929 45.9846 65.9107 45.9784 65.8863C45.9693 65.8466 45.5082 65.343 45.0685 64.8913C44.9036 64.7234 44.0792 63.8504 43.7556 63.5025C43.1998 62.9073 42.7815 62.4617 42.6105 62.2816C42.3113 61.9702 41.151 60.7432 41.038 60.6181C40.983 60.557 40.2991 59.8306 40.1525 59.6749C40.0395 59.5559 39.6426 59.1377 39.1296 58.6036C38.9617 58.4266 38.6594 58.103 38.4579 57.8863C37.5388 56.8974 37.0319 56.3693 36.7907 56.1465C36.6228 55.9908 36.1556 55.6276 35.9205 55.4659C35.7678 55.3621 35.5144 55.2095 35.4044 55.1545C35.3373 55.121 35.2609 55.0813 35.2365 55.066C35.1083 54.9867 34.351 54.6662 34.2869 54.6662C34.2625 54.6662 34.1922 54.6387 34.1281 54.6051C34.067 54.5715 33.9296 54.5319 33.8228 54.5166C33.719 54.5013 33.5846 54.4678 33.5266 54.4433C33.4686 54.4189 33.3098 54.3884 33.1754 54.3762C33.0411 54.367 32.8243 54.3365 32.69 54.3121C32.3877 54.2572 31.3953 54.2602 31.1144 54.3152Z"
      fill-rule="evenodd" />
  </g>
  <path
    d="M73.0446 25.88V35H67.5246V7.8H78.0846C84.4846 7.8 87.6846 10.7867 87.6846 16.76C87.6846 20.3067 86.3513 22.92 83.6846 24.6L87.5646 35H81.5246L78.3646 25.88H73.0446ZM78.1646 21.16C79.4713 21.16 80.4446 20.76 81.0846 19.96C81.7246 19.16 82.0446 18.1067 82.0446 16.8C82.0446 15.4933 81.698 14.4533 81.0046 13.68C80.338 12.9067 79.3646 12.52 78.0846 12.52H73.0446V21.16H78.1646ZM106.974 21.24V29.56C107.027 30.2 107.134 30.6533 107.294 30.92C107.454 31.16 107.787 31.3333 108.294 31.44L108.134 35.48C106.774 35.48 105.681 35.3867 104.854 35.2C104.054 35.0133 103.241 34.64 102.414 34.08C100.494 35.0133 98.534 35.48 96.534 35.48C92.4007 35.48 90.334 33.2933 90.334 28.92C90.334 26.7867 90.9073 25.28 92.054 24.4C93.2007 23.4933 94.9607 22.96 97.334 22.8L101.614 22.48V21.24C101.614 20.4133 101.427 19.8533 101.054 19.56C100.681 19.24 100.081 19.08 99.254 19.08L91.734 19.4L91.574 15.68C94.4273 14.9067 97.134 14.52 99.694 14.52C102.281 14.52 104.134 15.0533 105.254 16.12C106.401 17.1867 106.974 18.8933 106.974 21.24ZM97.974 26.52C96.4807 26.6533 95.734 27.4533 95.734 28.92C95.734 30.3867 96.3873 31.12 97.694 31.12C98.7073 31.12 99.814 30.96 101.014 30.64L101.614 30.48V26.2L97.974 26.52ZM112.084 35V15H117.404V17.12C119.644 15.7867 121.777 14.92 123.804 14.52V19.92C121.644 20.3733 119.79 20.84 118.244 21.32L117.444 21.6V35H112.084ZM128.047 17.28C129.46 15.44 131.82 14.52 135.127 14.52C138.433 14.52 140.793 15.44 142.207 17.28C143.62 19.0933 144.327 21.6533 144.327 24.96C144.327 31.9733 141.26 35.48 135.127 35.48C128.993 35.48 125.927 31.9733 125.927 24.96C125.927 21.6533 126.633 19.0933 128.047 17.28ZM132.167 29.48C132.727 30.44 133.713 30.92 135.127 30.92C136.54 30.92 137.513 30.44 138.047 29.48C138.607 28.52 138.887 27.0133 138.887 24.96C138.887 22.9067 138.607 21.4133 138.047 20.48C137.513 19.5467 136.54 19.08 135.127 19.08C133.713 19.08 132.727 19.5467 132.167 20.48C131.633 21.4133 131.367 22.9067 131.367 24.96C131.367 27.0133 131.633 28.52 132.167 29.48ZM67.5246 47.8H78.2046C81.0313 47.8 83.1513 48.3733 84.5646 49.52C85.978 50.64 86.6846 52.4667 86.6846 55C86.6846 56.52 86.458 57.7333 86.0046 58.64C85.5513 59.52 84.778 60.3067 83.6846 61C84.8846 61.5067 85.7646 62.24 86.3246 63.2C86.9113 64.16 87.2046 65.4933 87.2046 67.2C87.2046 69.84 86.4313 71.8 84.8846 73.08C83.338 74.36 81.1646 75 78.3646 75H67.5246V47.8ZM78.0846 63.64H73.0446V70.28H78.0846C79.2846 70.28 80.1646 70.04 80.7246 69.56C81.3113 69.08 81.6046 68.2 81.6046 66.92C81.6046 64.7333 80.4313 63.64 78.0846 63.64ZM77.9246 52.52H73.0446V59H77.9646C80.0446 59 81.0846 57.92 81.0846 55.76C81.0846 53.6 80.0313 52.52 77.9246 52.52ZM106.74 61.24V69.56C106.793 70.2 106.9 70.6533 107.06 70.92C107.22 71.16 107.553 71.3333 108.06 71.44L107.9 75.48C106.54 75.48 105.446 75.3867 104.62 75.2C103.82 75.0133 103.006 74.64 102.18 74.08C100.26 75.0133 98.2996 75.48 96.2996 75.48C92.1663 75.48 90.0996 73.2933 90.0996 68.92C90.0996 66.7867 90.673 65.28 91.8196 64.4C92.9663 63.4933 94.7263 62.96 97.0996 62.8L101.38 62.48V61.24C101.38 60.4133 101.193 59.8533 100.82 59.56C100.446 59.24 99.8463 59.08 99.0196 59.08L91.4996 59.4L91.3396 55.68C94.193 54.9067 96.8996 54.52 99.4596 54.52C102.046 54.52 103.9 55.0533 105.02 56.12C106.166 57.1867 106.74 58.8933 106.74 61.24ZM97.7396 66.52C96.2463 66.6533 95.4996 67.4533 95.4996 68.92C95.4996 70.3867 96.153 71.12 97.4596 71.12C98.473 71.12 99.5796 70.96 100.78 70.64L101.38 70.48V66.2L97.7396 66.52ZM117.209 75H111.849V55H117.169V56.12C118.983 55.0533 120.649 54.52 122.169 54.52C124.836 54.52 126.676 55.3067 127.689 56.88C128.703 58.4533 129.209 60.88 129.209 64.16V75H123.849V64.32C123.849 62.6133 123.649 61.36 123.249 60.56C122.849 59.7333 122.049 59.32 120.849 59.32C119.756 59.32 118.703 59.5067 117.689 59.88L117.209 60.04V75ZM139.319 75H133.959V47H139.319V62.92L141.359 62.56L145.319 55H151.319L146.119 64.48L151.599 75H145.559L141.519 67.2L139.319 67.56V75Z"
  />
  <defs>
    <clipPath id="clip0_333_695">
      <rect width="54.5646" height="80" fill-rule="evenodd" />
    </clipPath>
  </defs>
</svg>