<svg class="diagram-root" style="background: #f5f6f6" xmlns="http://www.w3.org/2000/svg" xmlns:xlink="http://www.w3.org/1999/xlink"><style>.diagram-root { font-family: "Helvetica Neue", sans-serif; font-size: 12px; } .t { overflow: visible; } .t-bg { y: 40; fill: #fff;   } .th { fill: #005aa0;   } .tht { fill: #fff; font-size: 14px;  } .tf { fill: #323c46; overflow: visible; } .tf.pk { fill: #005aa0; font-weight: bold; } .tf.fk { font-weight: bold; } .ty { fill: #adb1b5; font-weight: normal; text-anchor: end; } .r { fill: transparent; stroke: #c3c3c3; stroke-width: 1; } .l { stroke: 1; } .i { fill: #c2c7ce; stroke: #c2c7ce; } .i.ix { fill: #afb3b6; stroke: #000; } .fa { fill: transparent; overflow: visible; } .fa .bg.hover { fill: #f7f7f7; } .c { cy: 12; r: 4; stroke: #d2d2dc; fill: #d2d2dc; } .hr { fill: transparent; stroke: #323c46; stroke-opacity: 0.035; stroke-width: 13; } .dc { stroke: #fa5a3c; fill: #fa5a3c; } .x { stroke: white; stroke-width: 1; } .hl .th { fill: #1b9bff; } .hl .tht {  } .fhl .bg { fill: #e7f4ff; } .fhls .bg {  } .r.hl { stroke: #1b9bff; } .dim { opacity: 0.25; }</style><g class="drawing-wrapper" transform="translate(1023.7785714285714, 607.152857142857) scale(1,1)"><g class="rs"><path d="M -879.06 -265.21 m -1, 0 a 1,1 0 1,0 2,0 a 1,1 0 1,0 -2,0 M -879.06 -265.21 m -0.5, 0 a 0.5,0.5 0 1,0 1,0 a 0.5,0.5 0 1,0 -1,0  M-879.06 -265.21 L-879.06 -265.21 -867.06 -265.21 M-873.06 -259.21 L-873.06 -259.21 -873.06 -271.21 M-867.06 -265.21 Q -846.46 -265.21, -825.86 -274.61 T -784.67 -284.02 M -772.67 -284.02 m -1, 0 a 1,1 0 1,0 2,0 a 1,1 0 1,0 -2,0 M -772.67 -284.02 m -0.5, 0 a 0.5,0.5 0 1,0 1,0 a 0.5,0.5 0 1,0 -1,0  M-772.67 -284.02 L-772.67 -284.02 -784.67 -284.02 M -772.67 -278.02 m -1, 0 a 1,1 0 1,0 2,0 a 1,1 0 1,0 -2,0 M -772.67 -278.02 m -0.5, 0 a 0.5,0.5 0 1,0 1,0 a 0.5,0.5 0 1,0 -1,0  M-772.67 -278.02 L-772.67 -278.02 -779.67 -284.02 -772.67 -290.02 M -772.67 -290.02 m -1, 0 a 1,1 0 1,0 2,0 a 1,1 0 1,0 -2,0 M -772.67 -290.02 m -0.5, 0 a 0.5,0.5 0 1,0 1,0 a 0.5,0.5 0 1,0 -1,0 " id="h2938499349" class="r"></path><path d="M -445.23 -479.58000000000004 m -1, 0 a 1,1 0 1,0 2,0 a 1,1 0 1,0 -2,0 M -445.23 -479.58000000000004 m -0.5, 0 a 0.5,0.5 0 1,0 1,0 a 0.5,0.5 0 1,0 -1,0  M-445.23 -479.58000000000004 L-445.23 -479.58000000000004 -457.23 -479.58000000000004 M-451.23 -473.58000000000004 L-451.23 -473.58000000000004 -451.23 -485.58000000000004 M-457.23 -479.58000000000004 Q -499.14 -479.58000000000004, -541.06 -381.8 T -624.88 -284.02 M -636.88 -284.02 m -1, 0 a 1,1 0 1,0 2,0 a 1,1 0 1,0 -2,0 M -636.88 -284.02 m -0.5, 0 a 0.5,0.5 0 1,0 1,0 a 0.5,0.5 0 1,0 -1,0  M-636.88 -284.02 L-636.88 -284.02 -624.88 -284.02 M-630.88 -278.02 L-630.88 -278.02 -630.88 -290.02" id="h1540764997" class="r"></path><path d="M -120.35 -495.15 m -1, 0 a 1,1 0 1,0 2,0 a 1,1 0 1,0 -2,0 M -120.35 -495.15 m -0.5, 0 a 0.5,0.5 0 1,0 1,0 a 0.5,0.5 0 1,0 -1,0  M-120.35 -495.15 L-120.35 -495.15 -127.35 -495.15 M -120.35 -489.15 m -1, 0 a 1,1 0 1,0 2,0 a 1,1 0 1,0 -2,0 M -120.35 -489.15 m -0.5, 0 a 0.5,0.5 0 1,0 1,0 a 0.5,0.5 0 1,0 -1,0  M-120.35 -489.15 L-120.35 -489.15 -127.35 -495.15 -120.35 -501.15 M -120.35 -501.15 m -1, 0 a 1,1 0 1,0 2,0 a 1,1 0 1,0 -2,0 M -120.35 -501.15 m -0.5, 0 a 0.5,0.5 0 1,0 1,0 a 0.5,0.5 0 1,0 -1,0  M -129.85 -495.15 m -2.5, 0 a 2.5,2.5 0 1,0 5,0 a 2.5,2.5 0 1,0 -5,0 M-132.35 -495.15 Q -175.22 -495.15, -218.1 -499.86 T -303.85 -504.58000000000004 M -315.85 -504.58000000000004 m -1, 0 a 1,1 0 1,0 2,0 a 1,1 0 1,0 -2,0 M -315.85 -504.58000000000004 m -0.5, 0 a 0.5,0.5 0 1,0 1,0 a 0.5,0.5 0 1,0 -1,0  M-315.85 -504.58000000000004 L-315.85 -504.58000000000004 -303.85 -504.58000000000004 M-309.85 -498.58000000000004 L-309.85 -498.58000000000004 -309.85 -510.58000000000004" id="h234052871" class="r"></path><path d="M -120.35 -470.15 m -1, 0 a 1,1 0 1,0 2,0 a 1,1 0 1,0 -2,0 M -120.35 -470.15 m -0.5, 0 a 0.5,0.5 0 1,0 1,0 a 0.5,0.5 0 1,0 -1,0  M-120.35 -470.15 L-120.35 -470.15 -127.35 -470.15 M -120.35 -464.15 m -1, 0 a 1,1 0 1,0 2,0 a 1,1 0 1,0 -2,0 M -120.35 -464.15 m -0.5, 0 a 0.5,0.5 0 1,0 1,0 a 0.5,0.5 0 1,0 -1,0  M-120.35 -464.15 L-120.35 -464.15 -127.35 -470.15 -120.35 -476.15 M -120.35 -476.15 m -1, 0 a 1,1 0 1,0 2,0 a 1,1 0 1,0 -2,0 M -120.35 -476.15 m -0.5, 0 a 0.5,0.5 0 1,0 1,0 a 0.5,0.5 0 1,0 -1,0  M -129.85 -470.15 m -2.5, 0 a 2.5,2.5 0 1,0 5,0 a 2.5,2.5 0 1,0 -5,0 M-132.35 -470.15 Q -175.22 -470.15, -218.1 -487.36 T -303.85 -504.58000000000004 M -315.85 -504.58000000000004 m -1, 0 a 1,1 0 1,0 2,0 a 1,1 0 1,0 -2,0 M -315.85 -504.58000000000004 m -0.5, 0 a 0.5,0.5 0 1,0 1,0 a 0.5,0.5 0 1,0 -1,0  M-315.85 -504.58000000000004 L-315.85 -504.58000000000004 -303.85 -504.58000000000004 M-309.85 -498.58000000000004 L-309.85 -498.58000000000004 -309.85 -510.58000000000004" id="h3822139514" class="r"></path><path d="M -434.4 -157.29000000000002 m -1, 0 a 1,1 0 1,0 2,0 a 1,1 0 1,0 -2,0 M -434.4 -157.29000000000002 m -0.5, 0 a 0.5,0.5 0 1,0 1,0 a 0.5,0.5 0 1,0 -1,0  M-434.4 -157.29000000000002 L-434.4 -157.29000000000002 -446.4 -157.29000000000002 M-440.4 -151.29000000000002 L-440.4 -151.29000000000002 -440.4 -163.29000000000002 M-446.4 -157.29000000000002 Q -491.02 -157.29000000000002, -535.64 -220.65 T -624.88 -284.02 M -636.88 -284.02 m -1, 0 a 1,1 0 1,0 2,0 a 1,1 0 1,0 -2,0 M -636.88 -284.02 m -0.5, 0 a 0.5,0.5 0 1,0 1,0 a 0.5,0.5 0 1,0 -1,0  M-636.88 -284.02 L-636.88 -284.02 -624.88 -284.02 M -636.88 -278.02 m -1, 0 a 1,1 0 1,0 2,0 a 1,1 0 1,0 -2,0 M -636.88 -278.02 m -0.5, 0 a 0.5,0.5 0 1,0 1,0 a 0.5,0.5 0 1,0 -1,0  M-636.88 -278.02 L-636.88 -278.02 -629.88 -284.02 -636.88 -290.02 M -636.88 -290.02 m -1, 0 a 1,1 0 1,0 2,0 a 1,1 0 1,0 -2,0 M -636.88 -290.02 m -0.5, 0 a 0.5,0.5 0 1,0 1,0 a 0.5,0.5 0 1,0 -1,0 " id="h78330635" class="r"></path><path d="M -405.26 -20.36 m -1, 0 a 1,1 0 1,0 2,0 a 1,1 0 1,0 -2,0 M -405.26 -20.36 m -0.5, 0 a 0.5,0.5 0 1,0 1,0 a 0.5,0.5 0 1,0 -1,0  M-405.26 -20.36 L-405.26 -20.36 -417.26 -20.36 M -405.26 -14.36 m -1, 0 a 1,1 0 1,0 2,0 a 1,1 0 1,0 -2,0 M -405.26 -14.36 m -0.5, 0 a 0.5,0.5 0 1,0 1,0 a 0.5,0.5 0 1,0 -1,0  M-405.26 -14.36 L-405.26 -14.36 -412.26 -20.36 -405.26 -26.36 M -405.26 -26.36 m -1, 0 a 1,1 0 1,0 2,0 a 1,1 0 1,0 -2,0 M -405.26 -26.36 m -0.5, 0 a 0.5,0.5 0 1,0 1,0 a 0.5,0.5 0 1,0 -1,0  M-417.26 -20.36 Q -469.16 -20.36, -521.07 -152.19 T -624.88 -284.02 M -636.88 -284.02 m -1, 0 a 1,1 0 1,0 2,0 a 1,1 0 1,0 -2,0 M -636.88 -284.02 m -0.5, 0 a 0.5,0.5 0 1,0 1,0 a 0.5,0.5 0 1,0 -1,0  M-636.88 -284.02 L-636.88 -284.02 -624.88 -284.02 M -636.88 -278.02 m -1, 0 a 1,1 0 1,0 2,0 a 1,1 0 1,0 -2,0 M -636.88 -278.02 m -0.5, 0 a 0.5,0.5 0 1,0 1,0 a 0.5,0.5 0 1,0 -1,0  M-636.88 -278.02 L-636.88 -278.02 -629.88 -284.02 -636.88 -290.02 M -636.88 -290.02 m -1, 0 a 1,1 0 1,0 2,0 a 1,1 0 1,0 -2,0 M -636.88 -290.02 m -0.5, 0 a 0.5,0.5 0 1,0 1,0 a 0.5,0.5 0 1,0 -1,0 " id="h1498171472" class="r"></path><path d="M -243.87 4.640000000000001 m -1, 0 a 1,1 0 1,0 2,0 a 1,1 0 1,0 -2,0 M -243.87 4.640000000000001 m -0.5, 0 a 0.5,0.5 0 1,0 1,0 a 0.5,0.5 0 1,0 -1,0  M-243.87 4.640000000000001 L-243.87 4.640000000000001 -231.87 4.640000000000001 M -243.87 10.64 m -1, 0 a 1,1 0 1,0 2,0 a 1,1 0 1,0 -2,0 M -243.87 10.64 m -0.5, 0 a 0.5,0.5 0 1,0 1,0 a 0.5,0.5 0 1,0 -1,0  M-243.87 10.64 L-243.87 10.64 -236.87 4.640000000000001 -243.87 -1.3599999999999994 M -243.87 -1.3599999999999994 m -1, 0 a 1,1 0 1,0 2,0 a 1,1 0 1,0 -2,0 M -243.87 -1.3599999999999994 m -0.5, 0 a 0.5,0.5 0 1,0 1,0 a 0.5,0.5 0 1,0 -1,0  M-231.87 4.640000000000001 C -181.87 4.640000000000001, -177.184 -332.29, -239.68 -332.29 M -251.68 -332.29 m -1, 0 a 1,1 0 1,0 2,0 a 1,1 0 1,0 -2,0 M -251.68 -332.29 m -0.5, 0 a 0.5,0.5 0 1,0 1,0 a 0.5,0.5 0 1,0 -1,0  M-251.68 -332.29 L-251.68 -332.29 -239.68 -332.29 M -251.68 -326.29 m -1, 0 a 1,1 0 1,0 2,0 a 1,1 0 1,0 -2,0 M -251.68 -326.29 m -0.5, 0 a 0.5,0.5 0 1,0 1,0 a 0.5,0.5 0 1,0 -1,0  M-251.68 -326.29 L-251.68 -326.29 -244.68 -332.29 -251.68 -338.29 M -251.68 -338.29 m -1, 0 a 1,1 0 1,0 2,0 a 1,1 0 1,0 -2,0 M -251.68 -338.29 m -0.5, 0 a 0.5,0.5 0 1,0 1,0 a 0.5,0.5 0 1,0 -1,0 " id="h2805108028" class="r"></path></g><g class="hrs"></g><g class="ts"><svg width="135.79" height="200" x="-772.67" y="-341.02" id="h3889921393" class="t"><rect height="40" width="135.79" class="th"></rect><text x="13" y="25" class="tht">Users</text><rect height="160" width="135.79" class="t-bg"></rect><text x="13" y="61" class="tf pk">id<tspan x="122.78999999999999" class="ty">int</tspan></text><path d="M7,14A2,2 0 0,1 5,12A2,2 0 0,1 7,10A2,2 0 0,1 9,12A2,2 0 0,1 7,14M12.65,10C11.83,7.67 9.61,6 7, 6A6, 6 0 0, 0 1, 12A6, 6 0 0, 0 7, 18C9.61, 18 11.83, 16.33 12.65, 14H17V18H21V14H23V10H12.65Z" class="i pk" transform="translate(90.11617187499999, 48) scale(0.65)"></path><text x="13" y="86" class="tf">name<tspan x="122.78999999999999" class="ty">string</tspan></text><text x="13" y="111" class="tf">CPF<tspan x="122.78999999999999" class="ty">string(11)</tspan></text><path d="M22,18V22H18V19H15V16H12L9.74,13.74C9.19,13.91 8.61,14 8,14A6,6 0 0,1 2,8A6,6 0 0,1 8,2A6,6 0 0,1 14,8C14,8.61 13.91, 9.19 13.74, 9.74L22, 18M7, 5A2, 2 0 0, 0 5, 7A2, 2 0 0, 0 7, 9A2, 2 0 0, 0 9, 7A2, 2 0 0, 0 7, 5Z" class="i uq" transform="translate(56.99703124999999, 100.5) scale(0.5)"></path><text x="13" y="136" class="tf">email<tspan x="122.78999999999999" class="ty">string</tspan></text><text x="13" y="161" class="tf">password<tspan x="122.78999999999999" class="ty">string</tspan></text><text x="13" y="186" class="tf">role<tspan x="122.78999999999999" class="ty">ENUM</tspan></text></svg><svg width="122.72" height="175" x="-1001.78" y="-347.21" id="h2188318600" class="t"><rect height="40" width="122.72" class="th"></rect><text x="13" y="25" class="tht">Classrooms</text><rect height="135" width="122.72" class="t-bg"></rect><text x="13" y="61" class="tf pk">id<tspan x="109.72" class="ty">int</tspan></text><path d="M7,14A2,2 0 0,1 5,12A2,2 0 0,1 7,10A2,2 0 0,1 9,12A2,2 0 0,1 7,14M12.65,10C11.83,7.67 9.61,6 7, 6A6, 6 0 0, 0 1, 12A6, 6 0 0, 0 7, 18C9.61, 18 11.83, 16.33 12.65, 14H17V18H21V14H23V10H12.65Z" class="i pk" transform="translate(77.046171875, 48) scale(0.65)"></path><text x="13" y="86" class="tf fk">user_id<tspan x="109.72" class="ty">int</tspan></text><text x="13" y="111" class="tf">name<tspan x="109.72" class="ty">string</tspan></text><path d="M22,18V22H18V19H15V16H12L9.74,13.74C9.19,13.91 8.61,14 8,14A6,6 0 0,1 2,8A6,6 0 0,1 8,2A6,6 0 0,1 14,8C14,8.61 13.91, 9.19 13.74, 9.74L22, 18M7, 5A2, 2 0 0, 0 5, 7A2, 2 0 0, 0 7, 9A2, 2 0 0, 0 9, 7A2, 2 0 0, 0 7, 5Z" class="i uq" transform="translate(64.37625, 100.5) scale(0.5)"></path><text x="13" y="136" class="tf">start_date<tspan x="109.72" class="ty">date</tspan></text><text x="13" y="161" class="tf">end_date<tspan x="109.72" class="ty">date</tspan></text></svg><svg width="129.38" height="125" x="-445.23" y="-561.58" id="h2004962084" class="t"><rect height="40" width="129.38" class="th"></rect><text x="13" y="25" class="tht">Accounts</text><rect height="85" width="129.38" class="t-bg"></rect><text x="13" y="61" class="tf pk">id<tspan x="116.38" class="ty">string(16)</tspan></text><path d="M7,14A2,2 0 0,1 5,12A2,2 0 0,1 7,10A2,2 0 0,1 9,12A2,2 0 0,1 7,14M12.65,10C11.83,7.67 9.61,6 7, 6A6, 6 0 0, 0 1, 12A6, 6 0 0, 0 7, 18C9.61, 18 11.83, 16.33 12.65, 14H17V18H21V14H23V10H12.65Z" class="i pk" transform="translate(45.696406249999995, 48) scale(0.65)"></path><text x="13" y="86" class="tf fk">user_id<tspan x="116.38" class="ty">int</tspan></text><text x="13" y="111" class="tf">balance<tspan x="116.38" class="ty">decimal</tspan></text></svg><svg width="127.38" height="200" x="-120.35" y="-577.15" id="h3990581482" class="t"><rect height="40" width="127.38" class="th"></rect><text x="13" y="25" class="tht">Transactions</text><rect height="160" width="127.38" class="t-bg"></rect><text x="13" y="61" class="tf pk">id<tspan x="114.38" class="ty">int</tspan></text><path d="M7,14A2,2 0 0,1 5,12A2,2 0 0,1 7,10A2,2 0 0,1 9,12A2,2 0 0,1 7,14M12.65,10C11.83,7.67 9.61,6 7, 6A6, 6 0 0, 0 1, 12A6, 6 0 0, 0 7, 18C9.61, 18 11.83, 16.33 12.65, 14H17V18H21V14H23V10H12.65Z" class="i pk" transform="translate(81.706171875, 48) scale(0.65)"></path><text x="13" y="86" class="tf fk">sender_id<tspan x="114.38" class="ty">int</tspan></text><text x="13" y="111" class="tf fk">receiver_id<tspan x="114.38" class="ty">int</tspan></text><text x="13" y="136" class="tf">status<tspan x="114.38" class="ty">ENUM</tspan></text><text x="13" y="161" class="tf">token<tspan x="114.38" class="ty">string</tspan></text><path d="M22,18V22H18V19H15V16H12L9.74,13.74C9.19,13.91 8.61,14 8,14A6,6 0 0,1 2,8A6,6 0 0,1 8,2A6,6 0 0,1 14,8C14,8.61 13.91, 9.19 13.74, 9.74L22, 18M7, 5A2, 2 0 0, 0 5, 7A2, 2 0 0, 0 7, 9A2, 2 0 0, 0 9, 7A2, 2 0 0, 0 7, 5Z" class="i uq" transform="translate(69.03625, 150.5) scale(0.5)"></path><text x="13" y="186" class="tf">amount<tspan x="114.38" class="ty">decimal</tspan></text></svg><svg width="182.72" height="250" x="-434.4" y="-389.29" id="h893574413" class="t"><rect height="40" width="182.72" class="th"></rect><text x="13" y="25" class="tht">Investiments</text><rect height="210" width="182.72" class="t-bg"></rect><text x="13" y="61" class="tf pk">id<tspan x="169.72" class="ty">int</tspan></text><path d="M7,14A2,2 0 0,1 5,12A2,2 0 0,1 7,10A2,2 0 0,1 9,12A2,2 0 0,1 7,14M12.65,10C11.83,7.67 9.61,6 7, 6A6, 6 0 0, 0 1, 12A6, 6 0 0, 0 7, 18C9.61, 18 11.83, 16.33 12.65, 14H17V18H21V14H23V10H12.65Z" class="i pk" transform="translate(137.046171875, 48) scale(0.65)"></path><text x="13" y="86" class="tf">name<tspan x="169.72" class="ty">string</tspan></text><text x="13" y="111" class="tf">minimum_amount<tspan x="169.72" class="ty">decimal</tspan></text><text x="13" y="136" class="tf">income<tspan x="169.72" class="ty">decimal</tspan></text><text x="13" y="161" class="tf">premium?<tspan x="169.72" class="ty">boolean</tspan></text><text x="13" y="186" class="tf">profit<tspan x="169.72" class="ty">decimal</tspan></text><text x="13" y="211" class="tf">expiration_date<tspan x="169.72" class="ty">date</tspan></text><text x="13" y="236" class="tf fk">creator_id<tspan x="169.72" class="ty">int</tspan></text></svg><svg width="161.39" height="150" x="-405.26" y="-102.36" id="h2977873437" class="t"><rect height="40" width="161.39" class="th"></rect><text x="13" y="25" class="tht">User_Investiments</text><rect height="110" width="161.39" class="t-bg"></rect><text x="13" y="61" class="tf pk">id<tspan x="148.39" class="ty">int</tspan></text><path d="M7,14A2,2 0 0,1 5,12A2,2 0 0,1 7,10A2,2 0 0,1 9,12A2,2 0 0,1 7,14M12.65,10C11.83,7.67 9.61,6 7, 6A6, 6 0 0, 0 1, 12A6, 6 0 0, 0 7, 18C9.61, 18 11.83, 16.33 12.65, 14H17V18H21V14H23V10H12.65Z" class="i pk" transform="translate(115.71617187499999, 48) scale(0.65)"></path><text x="13" y="86" class="tf fk">user_id<tspan x="148.39" class="ty">int</tspan></text><text x="13" y="111" class="tf fk">investiment_id<tspan x="148.39" class="ty">int</tspan></text><text x="13" y="136" class="tf">initial_amount<tspan x="148.39" class="ty">decimal</tspan></text></svg></g></g></svg>