<svg class="diagram-root" style="background: #f5f6f6" xmlns="http://www.w3.org/2000/svg" xmlns:xlink="http://www.w3.org/1999/xlink"><style>.diagram-root { font-family: "Helvetica Neue", sans-serif; font-size: 12px; } .t { overflow: visible; } .t-bg { y: 40; fill: #fff;   } .th { fill: #005aa0;   } .tht { fill: #fff; font-size: 14px;  } .tf { fill: #323c46; overflow: visible; } .tf.pk { fill: #005aa0; font-weight: bold; } .tf.fk { font-weight: bold; } .ty { fill: #adb1b5; font-weight: normal; text-anchor: end; } .r { fill: transparent; stroke: #c3c3c3; stroke-width: 1; } .l { stroke: 1; } .i { fill: #c2c7ce; stroke: #c2c7ce; } .i.ix { fill: #afb3b6; stroke: #000; } .fa { fill: transparent; overflow: visible; } .fa .bg.hover { fill: #f7f7f7; } .c { cy: 12; r: 4; stroke: #d2d2dc; fill: #d2d2dc; } .hr { fill: transparent; stroke: #323c46; stroke-opacity: 0.035; stroke-width: 13; } .dc { stroke: #fa5a3c; fill: #fa5a3c; } .x { stroke: white; stroke-width: 1; } .hl .th { fill: #1b9bff; } .hl .tht {  } .fhl .bg { fill: #e7f4ff; } .fhls .bg {  } .r.hl { stroke: #1b9bff; } .dim { opacity: 0.25; }</style><g class="drawing-wrapper" transform="translate(1023.7785714285714, 607.152857142857) scale(1,1)"><g class="rs"><path d="M -876.78 -265.21428571428595 m -1, 0 a 1,1 0 1,0 2,0 a 1,1 0 1,0 -2,0 M -876.78 -265.21428571428595 m -0.5, 0 a 0.5,0.5 0 1,0 1,0 a 0.5,0.5 0 1,0 -1,0  M-876.78 -265.21428571428595 L-876.78 -265.21428571428595 -864.78 -265.21428571428595 M-870.78 -259.21428571428595 L-870.78 -259.21428571428595 -870.78 -271.21428571428595 M-864.78 -265.21428571428595 Q -844.75 -265.21428571428595, -824.72 -274.62 T -784.67 -284.02 M -772.67 -284.02 m -1, 0 a 1,1 0 1,0 2,0 a 1,1 0 1,0 -2,0 M -772.67 -284.02 m -0.5, 0 a 0.5,0.5 0 1,0 1,0 a 0.5,0.5 0 1,0 -1,0  M-772.67 -284.02 L-772.67 -284.02 -784.67 -284.02 M -772.67 -278.02 m -1, 0 a 1,1 0 1,0 2,0 a 1,1 0 1,0 -2,0 M -772.67 -278.02 m -0.5, 0 a 0.5,0.5 0 1,0 1,0 a 0.5,0.5 0 1,0 -1,0  M-772.67 -278.02 L-772.67 -278.02 -779.67 -284.02 -772.67 -290.02 M -772.67 -290.02 m -1, 0 a 1,1 0 1,0 2,0 a 1,1 0 1,0 -2,0 M -772.67 -290.02 m -0.5, 0 a 0.5,0.5 0 1,0 1,0 a 0.5,0.5 0 1,0 -1,0 " id="h2938499349" class="r"></path><path d="M -438.23 -464.58000000000004 m -1, 0 a 1,1 0 1,0 2,0 a 1,1 0 1,0 -2,0 M -438.23 -464.58000000000004 m -0.5, 0 a 0.5,0.5 0 1,0 1,0 a 0.5,0.5 0 1,0 -1,0  M-438.23 -464.58000000000004 L-438.23 -464.58000000000004 -450.23 -464.58000000000004 M-444.23 -458.58000000000004 L-444.23 -458.58000000000004 -444.23 -470.58000000000004 M-450.23 -464.58000000000004 Q -493.34 -464.58000000000004, -536.45 -374.3 T -622.67 -284.02 M -634.67 -284.02 m -1, 0 a 1,1 0 1,0 2,0 a 1,1 0 1,0 -2,0 M -634.67 -284.02 m -0.5, 0 a 0.5,0.5 0 1,0 1,0 a 0.5,0.5 0 1,0 -1,0  M-634.67 -284.02 L-634.67 -284.02 -622.67 -284.02 M-628.67 -278.02 L-628.67 -278.02 -628.67 -290.02" id="h1540764997" class="r"></path><path d="M -120.35 -495.152857142857 m -1, 0 a 1,1 0 1,0 2,0 a 1,1 0 1,0 -2,0 M -120.35 -495.152857142857 m -0.5, 0 a 0.5,0.5 0 1,0 1,0 a 0.5,0.5 0 1,0 -1,0  M-120.35 -495.152857142857 L-120.35 -495.152857142857 -127.35 -495.152857142857 M -120.35 -489.152857142857 m -1, 0 a 1,1 0 1,0 2,0 a 1,1 0 1,0 -2,0 M -120.35 -489.152857142857 m -0.5, 0 a 0.5,0.5 0 1,0 1,0 a 0.5,0.5 0 1,0 -1,0  M-120.35 -489.152857142857 L-120.35 -489.152857142857 -127.35 -495.152857142857 -120.35 -501.152857142857 M -120.35 -501.152857142857 m -1, 0 a 1,1 0 1,0 2,0 a 1,1 0 1,0 -2,0 M -120.35 -501.152857142857 m -0.5, 0 a 0.5,0.5 0 1,0 1,0 a 0.5,0.5 0 1,0 -1,0  M -129.85 -495.152857142857 m -2.5, 0 a 2.5,2.5 0 1,0 5,0 a 2.5,2.5 0 1,0 -5,0 M-132.35 -495.152857142857 Q -172.32 -495.152857142857, -212.29 -492.37 T -292.23 -489.58000000000004 M -304.23 -489.58000000000004 m -1, 0 a 1,1 0 1,0 2,0 a 1,1 0 1,0 -2,0 M -304.23 -489.58000000000004 m -0.5, 0 a 0.5,0.5 0 1,0 1,0 a 0.5,0.5 0 1,0 -1,0  M-304.23 -489.58000000000004 L-304.23 -489.58000000000004 -292.23 -489.58000000000004 M-298.23 -483.58000000000004 L-298.23 -483.58000000000004 -298.23 -495.58000000000004" id="h234052871" class="r"></path><path d="M -120.35 -470.152857142857 m -1, 0 a 1,1 0 1,0 2,0 a 1,1 0 1,0 -2,0 M -120.35 -470.152857142857 m -0.5, 0 a 0.5,0.5 0 1,0 1,0 a 0.5,0.5 0 1,0 -1,0  M-120.35 -470.152857142857 L-120.35 -470.152857142857 -127.35 -470.152857142857 M -120.35 -464.152857142857 m -1, 0 a 1,1 0 1,0 2,0 a 1,1 0 1,0 -2,0 M -120.35 -464.152857142857 m -0.5, 0 a 0.5,0.5 0 1,0 1,0 a 0.5,0.5 0 1,0 -1,0  M-120.35 -464.152857142857 L-120.35 -464.152857142857 -127.35 -470.152857142857 -120.35 -476.152857142857 M -120.35 -476.152857142857 m -1, 0 a 1,1 0 1,0 2,0 a 1,1 0 1,0 -2,0 M -120.35 -476.152857142857 m -0.5, 0 a 0.5,0.5 0 1,0 1,0 a 0.5,0.5 0 1,0 -1,0  M -129.85 -470.152857142857 m -2.5, 0 a 2.5,2.5 0 1,0 5,0 a 2.5,2.5 0 1,0 -5,0 M-132.35 -470.152857142857 Q -172.32 -470.152857142857, -212.29 -479.87 T -292.23 -489.58000000000004 M -304.23 -489.58000000000004 m -1, 0 a 1,1 0 1,0 2,0 a 1,1 0 1,0 -2,0 M -304.23 -489.58000000000004 m -0.5, 0 a 0.5,0.5 0 1,0 1,0 a 0.5,0.5 0 1,0 -1,0  M-304.23 -489.58000000000004 L-304.23 -489.58000000000004 -292.23 -489.58000000000004 M-298.23 -483.58000000000004 L-298.23 -483.58000000000004 -298.23 -495.58000000000004" id="h3822139514" class="r"></path><path d="M -437.48 -154.29000000000002 m -1, 0 a 1,1 0 1,0 2,0 a 1,1 0 1,0 -2,0 M -437.48 -154.29000000000002 m -0.5, 0 a 0.5,0.5 0 1,0 1,0 a 0.5,0.5 0 1,0 -1,0  M-437.48 -154.29000000000002 L-437.48 -154.29000000000002 -449.48 -154.29000000000002 M-443.48 -148.29000000000002 L-443.48 -148.29000000000002 -443.48 -160.29000000000002 M-449.48 -154.29000000000002 Q -492.78 -154.29000000000002, -536.08 -219.15 T -622.67 -284.02 M -634.67 -284.02 m -1, 0 a 1,1 0 1,0 2,0 a 1,1 0 1,0 -2,0 M -634.67 -284.02 m -0.5, 0 a 0.5,0.5 0 1,0 1,0 a 0.5,0.5 0 1,0 -1,0  M-634.67 -284.02 L-634.67 -284.02 -622.67 -284.02 M -634.67 -278.02 m -1, 0 a 1,1 0 1,0 2,0 a 1,1 0 1,0 -2,0 M -634.67 -278.02 m -0.5, 0 a 0.5,0.5 0 1,0 1,0 a 0.5,0.5 0 1,0 -1,0  M-634.67 -278.02 L-634.67 -278.02 -627.67 -284.02 -634.67 -290.02 M -634.67 -290.02 m -1, 0 a 1,1 0 1,0 2,0 a 1,1 0 1,0 -2,0 M -634.67 -290.02 m -0.5, 0 a 0.5,0.5 0 1,0 1,0 a 0.5,0.5 0 1,0 -1,0 " id="h78330635" class="r"></path><path d="M -422.18 -24.209999999999994 m -1, 0 a 1,1 0 1,0 2,0 a 1,1 0 1,0 -2,0 M -422.18 -24.209999999999994 m -0.5, 0 a 0.5,0.5 0 1,0 1,0 a 0.5,0.5 0 1,0 -1,0  M-422.18 -24.209999999999994 L-422.18 -24.209999999999994 -434.18 -24.209999999999994 M -422.18 -18.209999999999994 m -1, 0 a 1,1 0 1,0 2,0 a 1,1 0 1,0 -2,0 M -422.18 -18.209999999999994 m -0.5, 0 a 0.5,0.5 0 1,0 1,0 a 0.5,0.5 0 1,0 -1,0  M-422.18 -18.209999999999994 L-422.18 -18.209999999999994 -429.18 -24.209999999999994 -422.18 -30.209999999999994 M -422.18 -30.209999999999994 m -1, 0 a 1,1 0 1,0 2,0 a 1,1 0 1,0 -2,0 M -422.18 -30.209999999999994 m -0.5, 0 a 0.5,0.5 0 1,0 1,0 a 0.5,0.5 0 1,0 -1,0  M-434.18 -24.209999999999994 Q -481.3 -24.209999999999994, -528.42 -154.11 T -622.67 -284.02 M -634.67 -284.02 m -1, 0 a 1,1 0 1,0 2,0 a 1,1 0 1,0 -2,0 M -634.67 -284.02 m -0.5, 0 a 0.5,0.5 0 1,0 1,0 a 0.5,0.5 0 1,0 -1,0  M-634.67 -284.02 L-634.67 -284.02 -622.67 -284.02 M -634.67 -278.02 m -1, 0 a 1,1 0 1,0 2,0 a 1,1 0 1,0 -2,0 M -634.67 -278.02 m -0.5, 0 a 0.5,0.5 0 1,0 1,0 a 0.5,0.5 0 1,0 -1,0  M-634.67 -278.02 L-634.67 -278.02 -627.67 -284.02 -634.67 -290.02 M -634.67 -290.02 m -1, 0 a 1,1 0 1,0 2,0 a 1,1 0 1,0 -2,0 M -634.67 -290.02 m -0.5, 0 a 0.5,0.5 0 1,0 1,0 a 0.5,0.5 0 1,0 -1,0 " id="h1498171472" class="r"></path><path d="M -254.18 0.7900000000000063 m -1, 0 a 1,1 0 1,0 2,0 a 1,1 0 1,0 -2,0 M -254.18 0.7900000000000063 m -0.5, 0 a 0.5,0.5 0 1,0 1,0 a 0.5,0.5 0 1,0 -1,0  M-254.18 0.7900000000000063 L-254.18 0.7900000000000063 -242.18 0.7900000000000063 M -254.18 6.790000000000006 m -1, 0 a 1,1 0 1,0 2,0 a 1,1 0 1,0 -2,0 M -254.18 6.790000000000006 m -0.5, 0 a 0.5,0.5 0 1,0 1,0 a 0.5,0.5 0 1,0 -1,0  M-254.18 6.790000000000006 L-254.18 6.790000000000006 -247.18 0.7900000000000063 -254.18 -5.209999999999994 M -254.18 -5.209999999999994 m -1, 0 a 1,1 0 1,0 2,0 a 1,1 0 1,0 -2,0 M -254.18 -5.209999999999994 m -0.5, 0 a 0.5,0.5 0 1,0 1,0 a 0.5,0.5 0 1,0 -1,0  M-242.18 0.7900000000000063 C -178.26 0.7900000000000063, -183.48 -329.29, -233.48 -329.29 M -245.48 -329.29 m -1, 0 a 1,1 0 1,0 2,0 a 1,1 0 1,0 -2,0 M -245.48 -329.29 m -0.5, 0 a 0.5,0.5 0 1,0 1,0 a 0.5,0.5 0 1,0 -1,0  M-245.48 -329.29 L-245.48 -329.29 -233.48 -329.29 M -245.48 -323.29 m -1, 0 a 1,1 0 1,0 2,0 a 1,1 0 1,0 -2,0 M -245.48 -323.29 m -0.5, 0 a 0.5,0.5 0 1,0 1,0 a 0.5,0.5 0 1,0 -1,0  M-245.48 -323.29 L-245.48 -323.29 -238.48 -329.29 -245.48 -335.29 M -245.48 -335.29 m -1, 0 a 1,1 0 1,0 2,0 a 1,1 0 1,0 -2,0 M -245.48 -335.29 m -0.5, 0 a 0.5,0.5 0 1,0 1,0 a 0.5,0.5 0 1,0 -1,0 " id="h2805108028" class="r"></path></g><g class="hrs"></g><g class="ts"><svg width="134" height="125" x="-438.23" y="-546.58" id="h2004962084" class="t"><rect height="40" width="134" class="th"></rect><text x="13" y="25" class="tht">Accounts</text><rect height="85" width="134" class="t-bg" y="40"></rect><text x="13" y="61" class="tf pk">id<tspan x="121" class="ty">string(16)</tspan></text><path d="M7,14A2,2 0 0,1 5,12A2,2 0 0,1 7,10A2,2 0 0,1 9,12A2,2 0 0,1 7,14M12.65,10C11.83,7.67 9.61,6 7, 6A6, 6 0 0, 0 1, 12A6, 6 0 0, 0 7, 18C9.61, 18 11.83, 16.33 12.65, 14H17V18H21V14H23V10H12.65Z" class="i pk" transform="translate(48, 48) scale(0.65)"></path><text x="13" y="86" class="tf fk">user_id<tspan x="121" class="ty">int</tspan></text><text x="13" y="111" class="tf">balance<tspan x="121" class="ty">decimal</tspan></text></svg><svg width="138" height="225" x="-772.67" y="-341.02" id="h3889921393" class="t"><rect height="40" width="138" class="th"></rect><text x="13" y="25" class="tht">Users</text><rect height="185" width="138" class="t-bg" y="40"></rect><text x="13" y="61" class="tf pk">id<tspan x="125" class="ty">int</tspan></text><path d="M7,14A2,2 0 0,1 5,12A2,2 0 0,1 7,10A2,2 0 0,1 9,12A2,2 0 0,1 7,14M12.65,10C11.83,7.67 9.61,6 7, 6A6, 6 0 0, 0 1, 12A6, 6 0 0, 0 7, 18C9.61, 18 11.83, 16.33 12.65, 14H17V18H21V14H23V10H12.65Z" class="i pk" transform="translate(92, 48) scale(0.65)"></path><text x="13" y="86" class="tf">name<tspan x="125" class="ty">string</tspan></text><text x="13" y="111" class="tf">CPF<tspan x="125" class="ty">string(11)</tspan></text><path d="M22,18V22H18V19H15V16H12L9.74,13.74C9.19,13.91 8.61,14 8,14A6,6 0 0,1 2,8A6,6 0 0,1 8,2A6,6 0 0,1 14,8C14,8.61 13.91, 9.19 13.74, 9.74L22, 18M7, 5A2, 2 0 0, 0 5, 7A2, 2 0 0, 0 7, 9A2, 2 0 0, 0 9, 7A2, 2 0 0, 0 7, 5Z" class="i uq" transform="translate(57, 100.5) scale(0.5)"></path><text x="13" y="136" class="tf">email<tspan x="125" class="ty">string</tspan></text><text x="13" y="161" class="tf">password<tspan x="125" class="ty">string</tspan></text><text x="13" y="186" class="tf">role<tspan x="125" class="ty">ENUM</tspan></text><text x="13" y="211" class="tf">active?<tspan x="125" class="ty">boolean</tspan></text></svg><svg width="192" height="250" x="-437.48" y="-386.29" id="h893574413" class="t"><rect height="40" width="192" class="th"></rect><text x="13" y="25" class="tht">Investiments</text><rect height="210" width="192" class="t-bg" y="40"></rect><text x="13" y="61" class="tf pk">id<tspan x="179" class="ty">int</tspan></text><path d="M7,14A2,2 0 0,1 5,12A2,2 0 0,1 7,10A2,2 0 0,1 9,12A2,2 0 0,1 7,14M12.65,10C11.83,7.67 9.61,6 7, 6A6, 6 0 0, 0 1, 12A6, 6 0 0, 0 7, 18C9.61, 18 11.83, 16.33 12.65, 14H17V18H21V14H23V10H12.65Z" class="i pk" transform="translate(146, 48) scale(0.65)"></path><text x="13" y="86" class="tf">name<tspan x="179" class="ty">string</tspan></text><text x="13" y="111" class="tf">minimum_amount<tspan x="179" class="ty">decimal</tspan></text><text x="13" y="136" class="tf">income<tspan x="179" class="ty">decimal</tspan></text><text x="13" y="161" class="tf">premium?<tspan x="179" class="ty">boolean</tspan></text><text x="13" y="186" class="tf">profit<tspan x="179" class="ty">decimal</tspan></text><text x="13" y="211" class="tf">expiration_date<tspan x="179" class="ty">date</tspan></text><text x="13" y="236" class="tf fk">creator_id<tspan x="179" class="ty">int</tspan></text></svg><svg width="168" height="150" x="-422.18" y="-106.21" id="h2977873437" class="t"><rect height="40" width="168" class="th"></rect><text x="13" y="25" class="tht">User_Investiments</text><rect height="110" width="168" class="t-bg" y="40"></rect><text x="13" y="61" class="tf pk">id<tspan x="155" class="ty">int</tspan></text><path d="M7,14A2,2 0 0,1 5,12A2,2 0 0,1 7,10A2,2 0 0,1 9,12A2,2 0 0,1 7,14M12.65,10C11.83,7.67 9.61,6 7, 6A6, 6 0 0, 0 1, 12A6, 6 0 0, 0 7, 18C9.61, 18 11.83, 16.33 12.65, 14H17V18H21V14H23V10H12.65Z" class="i pk" transform="translate(122, 48) scale(0.65)"></path><text x="13" y="86" class="tf fk">user_id<tspan x="155" class="ty">int</tspan></text><text x="13" y="111" class="tf fk">investiment_id<tspan x="155" class="ty">int</tspan></text><text x="13" y="136" class="tf">initial_amount<tspan x="155" class="ty">decimal</tspan></text></svg><svg width="125" height="175" x="-1001.7785714285714" y="-347.21428571428595" id="h2188318600" class="t"><rect height="40" width="125" class="th"></rect><text x="13" y="25" class="tht">Classrooms</text><rect height="135" width="125" class="t-bg" y="40"></rect><text x="13" y="61" class="tf pk">id<tspan x="112" class="ty">int</tspan></text><path d="M7,14A2,2 0 0,1 5,12A2,2 0 0,1 7,10A2,2 0 0,1 9,12A2,2 0 0,1 7,14M12.65,10C11.83,7.67 9.61,6 7, 6A6, 6 0 0, 0 1, 12A6, 6 0 0, 0 7, 18C9.61, 18 11.83, 16.33 12.65, 14H17V18H21V14H23V10H12.65Z" class="i pk" transform="translate(79, 48) scale(0.65)"></path><text x="13" y="86" class="tf fk">user_id<tspan x="112" class="ty">int</tspan></text><text x="13" y="111" class="tf">name<tspan x="112" class="ty">string</tspan></text><path d="M22,18V22H18V19H15V16H12L9.74,13.74C9.19,13.91 8.61,14 8,14A6,6 0 0,1 2,8A6,6 0 0,1 8,2A6,6 0 0,1 14,8C14,8.61 13.91, 9.19 13.74, 9.74L22, 18M7, 5A2, 2 0 0, 0 5, 7A2, 2 0 0, 0 7, 9A2, 2 0 0, 0 9, 7A2, 2 0 0, 0 7, 5Z" class="i uq" transform="translate(65, 100.5) scale(0.5)"></path><text x="13" y="136" class="tf">start_date<tspan x="112" class="ty">date</tspan></text><text x="13" y="161" class="tf">end_date<tspan x="112" class="ty">date</tspan></text></svg><svg width="132" height="200" x="-120.35" y="-577.152857142857" id="h3990581482" class="t"><rect height="40" width="132" class="th"></rect><text x="13" y="25" class="tht">Transactions</text><rect height="160" width="132" class="t-bg" y="40"></rect><text x="13" y="61" class="tf pk">id<tspan x="119" class="ty">int</tspan></text><path d="M7,14A2,2 0 0,1 5,12A2,2 0 0,1 7,10A2,2 0 0,1 9,12A2,2 0 0,1 7,14M12.65,10C11.83,7.67 9.61,6 7, 6A6, 6 0 0, 0 1, 12A6, 6 0 0, 0 7, 18C9.61, 18 11.83, 16.33 12.65, 14H17V18H21V14H23V10H12.65Z" class="i pk" transform="translate(86, 48) scale(0.65)"></path><text x="13" y="86" class="tf fk">sender_id<tspan x="119" class="ty">int</tspan></text><text x="13" y="111" class="tf fk">receiver_id<tspan x="119" class="ty">int</tspan></text><text x="13" y="136" class="tf">status<tspan x="119" class="ty">ENUM</tspan></text><text x="13" y="161" class="tf">token<tspan x="119" class="ty">string</tspan></text><path d="M22,18V22H18V19H15V16H12L9.74,13.74C9.19,13.91 8.61,14 8,14A6,6 0 0,1 2,8A6,6 0 0,1 8,2A6,6 0 0,1 14,8C14,8.61 13.91, 9.19 13.74, 9.74L22, 18M7, 5A2, 2 0 0, 0 5, 7A2, 2 0 0, 0 7, 9A2, 2 0 0, 0 9, 7A2, 2 0 0, 0 7, 5Z" class="i uq" transform="translate(72, 150.5) scale(0.5)"></path><text x="13" y="186" class="tf">amount<tspan x="119" class="ty">decimal</tspan></text></svg></g></g></svg>